%TF.GenerationSoftware,KiCad,Pcbnew,(6.0.9-0)*%
%TF.CreationDate,2022-11-10T09:06:53+01:00*%
%TF.ProjectId,picocart64_v1_lite,7069636f-6361-4727-9436-345f76315f6c,rev?*%
%TF.SameCoordinates,Original*%
%TF.FileFunction,Drillmap*%
%TF.FilePolarity,Positive*%
%FSLAX45Y45*%
G04 Gerber Fmt 4.5, Leading zero omitted, Abs format (unit mm)*
G04 Created by KiCad (PCBNEW (6.0.9-0)) date 2022-11-10 09:06:53*
%MOMM*%
%LPD*%
G01*
G04 APERTURE LIST*
%ADD10C,0.100000*%
%ADD11C,0.200000*%
%ADD12C,0.040000*%
%ADD13C,0.102000*%
%ADD14C,0.250000*%
G04 APERTURE END LIST*
D10*
X18250000Y-11900000D02*
X18250000Y-10950000D01*
X19400000Y-10950000D02*
X18250000Y-10950000D01*
X19400000Y-10950000D02*
X19400000Y-11550000D01*
X19950000Y-11600000D02*
X19450000Y-11600000D01*
X20000000Y-11550000D02*
X20000000Y-8950000D01*
X19690000Y-8300000D02*
X19690000Y-8150000D01*
X19900000Y-8150000D02*
X19690000Y-8150000D01*
X11800000Y-11900000D02*
X11900000Y-12000000D01*
X18250000Y-11900000D02*
X18150000Y-12000000D01*
X10130000Y-6000000D02*
G75*
G03*
X10080000Y-6050000I0J-50000D01*
G01*
X10050000Y-6250000D02*
G75*
G03*
X10000000Y-6300000I0J-50000D01*
G01*
X10000000Y-8250000D02*
G75*
G03*
X10050000Y-8300000I50000J0D01*
G01*
X10150000Y-8450000D02*
G75*
G03*
X10100000Y-8500000I0J-50000D01*
G01*
X10050000Y-8750000D02*
G75*
G03*
X10000000Y-8800000I0J-50000D01*
G01*
X10000000Y-11550000D02*
G75*
G03*
X10050000Y-11600000I50000J0D01*
G01*
X10600000Y-11600000D02*
G75*
G03*
X10650000Y-11550000I0J50000D01*
G01*
X19400000Y-11550000D02*
G75*
G03*
X19450000Y-11600000I50000J0D01*
G01*
X19950000Y-11600000D02*
G75*
G03*
X20000000Y-11550000I0J50000D01*
G01*
X19950000Y-8350000D02*
G75*
G03*
X19900000Y-8300000I-50000J0D01*
G01*
X19900000Y-8150000D02*
G75*
G03*
X19950000Y-8100000I0J50000D01*
G01*
X20000000Y-8950000D02*
G75*
G03*
X19950000Y-8900000I-50000J0D01*
G01*
X19730000Y-6865000D02*
G75*
G03*
X19680000Y-6915000I0J-50000D01*
G01*
X19950000Y-8350000D02*
X19950000Y-8900000D01*
X11800000Y-11900000D02*
X11800000Y-10950000D01*
X19950000Y-8000000D02*
G75*
G03*
X19900000Y-7950000I-50000J0D01*
G01*
X10650000Y-10950000D02*
X10650000Y-11550000D01*
X19950000Y-6050000D02*
G75*
G03*
X19900000Y-6000000I-50000J0D01*
G01*
X19680000Y-7900000D02*
G75*
G03*
X19730000Y-7950000I50000J0D01*
G01*
X18150000Y-12000000D02*
X11900000Y-12000000D01*
X19899645Y-6864645D02*
X19730000Y-6865000D01*
X11800000Y-10950000D02*
X10650000Y-10950000D01*
X10350000Y-8450000D02*
X10350000Y-8300000D01*
X19949645Y-6814645D02*
X19950000Y-6050000D01*
X10150000Y-8450000D02*
X10350000Y-8450000D01*
X10600000Y-11600000D02*
X10050000Y-11600000D01*
X10050000Y-6250000D02*
X10080000Y-6250000D01*
X10000000Y-8250000D02*
X10000000Y-6300000D01*
X10080000Y-6250000D02*
X10080000Y-6050000D01*
X10130000Y-6000000D02*
X19900000Y-6000000D01*
X10000000Y-11550000D02*
X10000000Y-8800000D01*
X19900000Y-7950000D02*
X19730000Y-7950000D01*
X10050000Y-8750000D02*
X10100000Y-8750000D01*
X19899645Y-6864645D02*
G75*
G03*
X19949645Y-6814645I-5J50005D01*
G01*
X10100000Y-8750000D02*
X10100000Y-8500000D01*
X19900000Y-8300000D02*
X19690000Y-8300000D01*
X19950000Y-8100000D02*
X19950000Y-8000000D01*
X10350000Y-8300000D02*
X10050000Y-8300000D01*
X19680000Y-7900000D02*
X19680000Y-6915000D01*
D11*
D12*
X10118414Y-8935330D02*
X10158414Y-8975330D01*
X10158414Y-8935330D02*
X10118414Y-8975330D01*
X10122500Y-9185330D02*
X10162500Y-9225330D01*
X10162500Y-9185330D02*
X10122500Y-9225330D01*
X10126586Y-9435330D02*
X10166586Y-9475330D01*
X10166586Y-9435330D02*
X10126586Y-9475330D01*
X10130672Y-9685330D02*
X10170672Y-9725330D01*
X10170672Y-9685330D02*
X10130672Y-9725330D01*
X10134757Y-9935330D02*
X10174757Y-9975330D01*
X10174757Y-9935330D02*
X10134757Y-9975330D01*
X10138843Y-10185330D02*
X10178843Y-10225330D01*
X10178843Y-10185330D02*
X10138843Y-10225330D01*
X10139610Y-10435330D02*
X10179610Y-10475330D01*
X10179610Y-10435330D02*
X10139610Y-10475330D01*
X10139610Y-10685330D02*
X10179610Y-10725330D01*
X10179610Y-10685330D02*
X10139610Y-10725330D01*
X10208881Y-7376000D02*
X10248881Y-7416000D01*
X10248881Y-7376000D02*
X10208881Y-7416000D01*
X10212286Y-7576000D02*
X10252286Y-7616000D01*
X10252286Y-7576000D02*
X10212286Y-7616000D01*
X10215690Y-7776000D02*
X10255690Y-7816000D01*
X10255690Y-7776000D02*
X10215690Y-7816000D01*
X10219095Y-7976000D02*
X10259095Y-8016000D01*
X10259095Y-7976000D02*
X10219095Y-8016000D01*
X10222500Y-8176000D02*
X10262500Y-8216000D01*
X10262500Y-8176000D02*
X10222500Y-8216000D01*
X10222500Y-8576000D02*
X10262500Y-8616000D01*
X10262500Y-8576000D02*
X10222500Y-8616000D01*
X10521000Y-6330000D02*
X10561000Y-6370000D01*
X10561000Y-6330000D02*
X10521000Y-6370000D01*
X10521000Y-10775000D02*
X10561000Y-10815000D01*
X10561000Y-10775000D02*
X10521000Y-10815000D01*
X10522970Y-10267000D02*
X10562970Y-10307000D01*
X10562970Y-10267000D02*
X10522970Y-10307000D01*
X10526556Y-9759000D02*
X10566556Y-9799000D01*
X10566556Y-9759000D02*
X10526556Y-9799000D01*
X11029000Y-6329998D02*
X11069000Y-6369998D01*
X11069000Y-6329998D02*
X11029000Y-6369998D01*
X11029000Y-10773750D02*
X11069000Y-10813750D01*
X11069000Y-10773750D02*
X11029000Y-10813750D01*
X11030970Y-10265750D02*
X11070970Y-10305750D01*
X11070970Y-10265750D02*
X11030970Y-10305750D01*
X11034556Y-9857970D02*
X11074556Y-9897970D01*
X11074556Y-9857970D02*
X11034556Y-9897970D01*
X11537000Y-6325912D02*
X11577000Y-6365912D01*
X11577000Y-6325912D02*
X11537000Y-6365912D01*
X11537000Y-10771779D02*
X11577000Y-10811779D01*
X11577000Y-10771779D02*
X11537000Y-10811779D01*
X11538970Y-10263779D02*
X11578970Y-10303779D01*
X11578970Y-10263779D02*
X11538970Y-10303779D01*
X11542556Y-9856000D02*
X11582556Y-9896000D01*
X11582556Y-9856000D02*
X11542556Y-9896000D01*
X12005000Y-10800000D02*
X12045000Y-10840000D01*
X12045000Y-10800000D02*
X12005000Y-10840000D01*
X12005000Y-11115000D02*
X12045000Y-11155000D01*
X12045000Y-11115000D02*
X12005000Y-11155000D01*
X12045000Y-6321827D02*
X12085000Y-6361827D01*
X12085000Y-6321827D02*
X12045000Y-6361827D01*
X12046970Y-10261809D02*
X12086970Y-10301809D01*
X12086970Y-10261809D02*
X12046970Y-10301809D01*
X12050556Y-9753809D02*
X12090556Y-9793809D01*
X12090556Y-9753809D02*
X12050556Y-9793809D01*
X12505000Y-10795000D02*
X12545000Y-10835000D01*
X12545000Y-10795000D02*
X12505000Y-10835000D01*
X12505000Y-11115000D02*
X12545000Y-11155000D01*
X12545000Y-11115000D02*
X12505000Y-11155000D01*
X12553000Y-6317741D02*
X12593000Y-6357741D01*
X12593000Y-6317741D02*
X12553000Y-6357741D01*
X12553000Y-10261449D02*
X12593000Y-10301449D01*
X12593000Y-10261449D02*
X12553000Y-10301449D01*
X12556586Y-9753449D02*
X12596586Y-9793449D01*
X12596586Y-9753449D02*
X12556586Y-9793449D01*
X12755000Y-10805000D02*
X12795000Y-10845000D01*
X12795000Y-10805000D02*
X12755000Y-10845000D01*
X12755000Y-11115000D02*
X12795000Y-11155000D01*
X12795000Y-11115000D02*
X12755000Y-11155000D01*
X12895000Y-10045000D02*
X12935000Y-10085000D01*
X12935000Y-10045000D02*
X12895000Y-10085000D01*
X12900000Y-8215000D02*
X12940000Y-8255000D01*
X12940000Y-8215000D02*
X12900000Y-8255000D01*
X12900000Y-9080650D02*
X12940000Y-9120650D01*
X12940000Y-9080650D02*
X12900000Y-9120650D01*
X13061000Y-6313655D02*
X13101000Y-6353655D01*
X13101000Y-6313655D02*
X13061000Y-6353655D01*
X13075000Y-10465000D02*
X13115000Y-10505000D01*
X13115000Y-10465000D02*
X13075000Y-10505000D01*
X13240000Y-8200000D02*
X13280000Y-8240000D01*
X13280000Y-8200000D02*
X13240000Y-8240000D01*
X13240000Y-8810000D02*
X13280000Y-8850000D01*
X13280000Y-8810000D02*
X13240000Y-8850000D01*
X13255000Y-9015000D02*
X13295000Y-9055000D01*
X13295000Y-9015000D02*
X13255000Y-9055000D01*
X13377500Y-11031000D02*
X13417500Y-11071000D01*
X13417500Y-11031000D02*
X13377500Y-11071000D01*
X13569000Y-6309569D02*
X13609000Y-6349569D01*
X13609000Y-6309569D02*
X13569000Y-6349569D01*
X13637500Y-11111000D02*
X13677500Y-11151000D01*
X13677500Y-11111000D02*
X13637500Y-11151000D01*
X13707500Y-7881000D02*
X13747500Y-7921000D01*
X13747500Y-7881000D02*
X13707500Y-7921000D01*
X13717500Y-8311000D02*
X13757500Y-8351000D01*
X13757500Y-8311000D02*
X13717500Y-8351000D01*
X13862500Y-10681000D02*
X13902500Y-10721000D01*
X13902500Y-10681000D02*
X13862500Y-10721000D01*
X13957500Y-8121000D02*
X13997500Y-8161000D01*
X13997500Y-8121000D02*
X13957500Y-8161000D01*
X13967500Y-8771000D02*
X14007500Y-8811000D01*
X14007500Y-8771000D02*
X13967500Y-8811000D01*
X13977500Y-10381000D02*
X14017500Y-10421000D01*
X14017500Y-10381000D02*
X13977500Y-10421000D01*
X14004100Y-11005900D02*
X14044100Y-11045900D01*
X14044100Y-11005900D02*
X14004100Y-11045900D01*
X14004100Y-11105900D02*
X14044100Y-11145900D01*
X14044100Y-11105900D02*
X14004100Y-11145900D01*
X14052780Y-9805120D02*
X14092780Y-9845120D01*
X14092780Y-9805120D02*
X14052780Y-9845120D01*
X14067500Y-9095000D02*
X14107500Y-9135000D01*
X14107500Y-9095000D02*
X14067500Y-9135000D01*
X14070532Y-7346000D02*
X14110532Y-7386000D01*
X14110532Y-7346000D02*
X14070532Y-7386000D01*
X14074618Y-6838000D02*
X14114618Y-6878000D01*
X14114618Y-6838000D02*
X14074618Y-6878000D01*
X14077000Y-6305483D02*
X14117000Y-6345483D01*
X14117000Y-6305483D02*
X14077000Y-6345483D01*
X14187500Y-8451000D02*
X14227500Y-8491000D01*
X14227500Y-8451000D02*
X14187500Y-8491000D01*
X14247500Y-8131000D02*
X14287500Y-8171000D01*
X14287500Y-8131000D02*
X14247500Y-8171000D01*
X14255000Y-11050000D02*
X14295000Y-11090000D01*
X14295000Y-11050000D02*
X14255000Y-11090000D01*
X14427500Y-9095000D02*
X14467500Y-9135000D01*
X14467500Y-9095000D02*
X14427500Y-9135000D01*
X14457500Y-7991000D02*
X14497500Y-8031000D01*
X14497500Y-7991000D02*
X14457500Y-8031000D01*
X14505000Y-11031000D02*
X14545000Y-11071000D01*
X14545000Y-11031000D02*
X14505000Y-11071000D01*
X14587500Y-10161000D02*
X14627500Y-10201000D01*
X14627500Y-10161000D02*
X14587500Y-10201000D01*
X14727500Y-10351000D02*
X14767500Y-10391000D01*
X14767500Y-10351000D02*
X14727500Y-10391000D01*
X14737500Y-9801000D02*
X14777500Y-9841000D01*
X14777500Y-9801000D02*
X14737500Y-9841000D01*
X14827500Y-8901000D02*
X14867500Y-8941000D01*
X14867500Y-8901000D02*
X14827500Y-8941000D01*
X14827500Y-10631000D02*
X14867500Y-10671000D01*
X14867500Y-10631000D02*
X14827500Y-10671000D01*
X14937500Y-7841000D02*
X14977500Y-7881000D01*
X14977500Y-7841000D02*
X14937500Y-7881000D01*
X14954801Y-7231000D02*
X14994801Y-7271000D01*
X14994801Y-7231000D02*
X14954801Y-7271000D01*
X14957500Y-9791000D02*
X14997500Y-9831000D01*
X14997500Y-9791000D02*
X14957500Y-9831000D01*
X14957500Y-10981000D02*
X14997500Y-11021000D01*
X14997500Y-10981000D02*
X14957500Y-11021000D01*
X14957638Y-7431000D02*
X14997638Y-7471000D01*
X14997638Y-7431000D02*
X14957638Y-7471000D01*
X14960476Y-7631000D02*
X15000476Y-7671000D01*
X15000476Y-7631000D02*
X14960476Y-7671000D01*
X14987500Y-10591000D02*
X15027500Y-10631000D01*
X15027500Y-10591000D02*
X14987500Y-10631000D01*
X15107500Y-11091000D02*
X15147500Y-11131000D01*
X15147500Y-11091000D02*
X15107500Y-11131000D01*
X15147500Y-7561000D02*
X15187500Y-7601000D01*
X15187500Y-7561000D02*
X15147500Y-7601000D01*
X15187500Y-7131000D02*
X15227500Y-7171000D01*
X15227500Y-7131000D02*
X15187500Y-7171000D01*
X15187500Y-7841000D02*
X15227500Y-7881000D01*
X15227500Y-7841000D02*
X15187500Y-7881000D01*
X15187500Y-8871000D02*
X15227500Y-8911000D01*
X15227500Y-8871000D02*
X15187500Y-8911000D01*
X15400000Y-11100000D02*
X15440000Y-11140000D01*
X15440000Y-11100000D02*
X15400000Y-11140000D01*
X15457500Y-7841000D02*
X15497500Y-7881000D01*
X15497500Y-7841000D02*
X15457500Y-7881000D01*
X15537500Y-6861000D02*
X15577500Y-6901000D01*
X15577500Y-6861000D02*
X15537500Y-6901000D01*
X15685000Y-11055000D02*
X15725000Y-11095000D01*
X15725000Y-11055000D02*
X15685000Y-11095000D01*
X15707500Y-7851000D02*
X15747500Y-7891000D01*
X15747500Y-7851000D02*
X15707500Y-7891000D01*
X15712500Y-10431000D02*
X15752500Y-10471000D01*
X15752500Y-10431000D02*
X15712500Y-10471000D01*
X15755000Y-10950000D02*
X15795000Y-10990000D01*
X15795000Y-10950000D02*
X15755000Y-10990000D01*
X15842500Y-10046000D02*
X15882500Y-10086000D01*
X15882500Y-10046000D02*
X15842500Y-10086000D01*
X15967500Y-7841000D02*
X16007500Y-7881000D01*
X16007500Y-7841000D02*
X15967500Y-7881000D01*
X15977500Y-8841000D02*
X16017500Y-8881000D01*
X16017500Y-8841000D02*
X15977500Y-8881000D01*
X16004100Y-11005900D02*
X16044100Y-11045900D01*
X16044100Y-11005900D02*
X16004100Y-11045900D01*
X16004100Y-11105200D02*
X16044100Y-11145200D01*
X16044100Y-11105200D02*
X16004100Y-11145200D01*
X16057500Y-6821000D02*
X16097500Y-6861000D01*
X16097500Y-6821000D02*
X16057500Y-6861000D01*
X16097500Y-9746000D02*
X16137500Y-9786000D01*
X16137500Y-9746000D02*
X16097500Y-9786000D01*
X16157500Y-11061000D02*
X16197500Y-11101000D01*
X16197500Y-11061000D02*
X16157500Y-11101000D01*
X16257500Y-7991000D02*
X16297500Y-8031000D01*
X16297500Y-7991000D02*
X16257500Y-8031000D01*
X16277500Y-8801000D02*
X16317500Y-8841000D01*
X16317500Y-8801000D02*
X16277500Y-8841000D01*
X16277500Y-9095000D02*
X16317500Y-9135000D01*
X16317500Y-9095000D02*
X16277500Y-9135000D01*
X16347905Y-6821000D02*
X16387905Y-6861000D01*
X16387905Y-6821000D02*
X16347905Y-6861000D01*
X16387500Y-10801000D02*
X16427500Y-10841000D01*
X16427500Y-10801000D02*
X16387500Y-10841000D01*
X16462500Y-7781000D02*
X16502500Y-7821000D01*
X16502500Y-7781000D02*
X16462500Y-7821000D01*
X16462500Y-9501000D02*
X16502500Y-9541000D01*
X16502500Y-9501000D02*
X16462500Y-9541000D01*
X16507500Y-9916000D02*
X16547500Y-9956000D01*
X16547500Y-9916000D02*
X16507500Y-9956000D01*
X16597905Y-6821000D02*
X16637905Y-6861000D01*
X16637905Y-6821000D02*
X16597905Y-6861000D01*
X16610000Y-10585000D02*
X16650000Y-10625000D01*
X16650000Y-10585000D02*
X16610000Y-10625000D01*
X16622500Y-9641000D02*
X16662500Y-9681000D01*
X16662500Y-9641000D02*
X16622500Y-9681000D01*
X16744000Y-8022414D02*
X16784000Y-8062414D01*
X16784000Y-8022414D02*
X16744000Y-8062414D01*
X16755000Y-10860000D02*
X16795000Y-10900000D01*
X16795000Y-10860000D02*
X16755000Y-10900000D01*
X16755000Y-10985000D02*
X16795000Y-11025000D01*
X16795000Y-10985000D02*
X16755000Y-11025000D01*
X16757500Y-9080650D02*
X16797500Y-9120650D01*
X16797500Y-9080650D02*
X16757500Y-9120650D01*
X16787500Y-9991000D02*
X16827500Y-10031000D01*
X16827500Y-9991000D02*
X16787500Y-10031000D01*
X16855500Y-6823280D02*
X16895500Y-6863280D01*
X16895500Y-6823280D02*
X16855500Y-6863280D01*
X16892500Y-8781500D02*
X16932500Y-8821500D01*
X16932500Y-8781500D02*
X16892500Y-8821500D01*
X16933140Y-10628080D02*
X16973140Y-10668080D01*
X16973140Y-10628080D02*
X16933140Y-10668080D01*
X16998000Y-8020050D02*
X17038000Y-8060050D01*
X17038000Y-8020050D02*
X16998000Y-8060050D01*
X17109500Y-6823281D02*
X17149500Y-6863281D01*
X17149500Y-6823281D02*
X17109500Y-6863281D01*
X17277500Y-8051000D02*
X17317500Y-8091000D01*
X17317500Y-8051000D02*
X17277500Y-8091000D01*
X17363500Y-6822140D02*
X17403500Y-6862140D01*
X17403500Y-6822140D02*
X17363500Y-6862140D01*
X17372500Y-9726000D02*
X17412500Y-9766000D01*
X17412500Y-9726000D02*
X17372500Y-9766000D01*
X17377500Y-8781000D02*
X17417500Y-8821000D01*
X17417500Y-8781000D02*
X17377500Y-8821000D01*
X17402500Y-10201000D02*
X17442500Y-10241000D01*
X17442500Y-10201000D02*
X17402500Y-10241000D01*
X17597500Y-7481000D02*
X17637500Y-7521000D01*
X17637500Y-7481000D02*
X17597500Y-7521000D01*
X17617500Y-6821000D02*
X17657500Y-6861000D01*
X17657500Y-6821000D02*
X17617500Y-6861000D01*
X17617500Y-9221000D02*
X17657500Y-9261000D01*
X17657500Y-9221000D02*
X17617500Y-9261000D01*
X17718000Y-8016491D02*
X17758000Y-8056491D01*
X17758000Y-8016491D02*
X17718000Y-8056491D01*
X17755000Y-10855000D02*
X17795000Y-10895000D01*
X17795000Y-10855000D02*
X17755000Y-10895000D01*
X17755000Y-11115000D02*
X17795000Y-11155000D01*
X17795000Y-11115000D02*
X17755000Y-11155000D01*
X17867500Y-8861000D02*
X17907500Y-8901000D01*
X17907500Y-8861000D02*
X17867500Y-8901000D01*
X17887500Y-7821000D02*
X17927500Y-7861000D01*
X17927500Y-7821000D02*
X17887500Y-7861000D01*
X17907500Y-9871000D02*
X17947500Y-9911000D01*
X17947500Y-9871000D02*
X17907500Y-9911000D01*
X17984700Y-9226000D02*
X18024700Y-9266000D01*
X18024700Y-9226000D02*
X17984700Y-9266000D01*
X18005000Y-10860000D02*
X18045000Y-10900000D01*
X18045000Y-10860000D02*
X18005000Y-10900000D01*
X18005000Y-11115000D02*
X18045000Y-11155000D01*
X18045000Y-11115000D02*
X18005000Y-11155000D01*
X18096460Y-8900880D02*
X18136460Y-8940880D01*
X18136460Y-8900880D02*
X18096460Y-8940880D01*
X18117500Y-9621000D02*
X18157500Y-9661000D01*
X18157500Y-9621000D02*
X18117500Y-9661000D01*
X18120000Y-7765500D02*
X18160000Y-7805500D01*
X18160000Y-7765500D02*
X18120000Y-7805500D01*
X18141000Y-6833897D02*
X18181000Y-6873897D01*
X18181000Y-6833897D02*
X18141000Y-6873897D01*
X18268000Y-8738796D02*
X18308000Y-8778796D01*
X18308000Y-8738796D02*
X18268000Y-8778796D01*
X18287500Y-8010817D02*
X18327500Y-8050817D01*
X18327500Y-8010817D02*
X18287500Y-8050817D01*
X18362500Y-7581000D02*
X18402500Y-7621000D01*
X18402500Y-7581000D02*
X18362500Y-7621000D01*
X18537500Y-9431000D02*
X18577500Y-9471000D01*
X18577500Y-9431000D02*
X18537500Y-9471000D01*
X18587500Y-10836350D02*
X18627500Y-10876350D01*
X18627500Y-10836350D02*
X18587500Y-10876350D01*
X18637500Y-7406000D02*
X18677500Y-7446000D01*
X18677500Y-7406000D02*
X18637500Y-7446000D01*
X18647500Y-10406000D02*
X18687500Y-10446000D01*
X18687500Y-10406000D02*
X18647500Y-10446000D01*
X18775879Y-8019500D02*
X18815879Y-8059500D01*
X18815879Y-8019500D02*
X18775879Y-8059500D01*
X18776000Y-9755935D02*
X18816000Y-9795935D01*
X18816000Y-9755935D02*
X18776000Y-9795935D01*
X18887500Y-10271000D02*
X18927500Y-10311000D01*
X18927500Y-10271000D02*
X18887500Y-10311000D01*
X18897500Y-10836350D02*
X18937500Y-10876350D01*
X18937500Y-10836350D02*
X18897500Y-10876350D01*
X18988000Y-8019329D02*
X19028000Y-8059329D01*
X19028000Y-8019329D02*
X18988000Y-8059329D01*
X19030000Y-8743000D02*
X19070000Y-8783000D01*
X19070000Y-8743000D02*
X19030000Y-8783000D01*
X19112500Y-6956000D02*
X19152500Y-6996000D01*
X19152500Y-6956000D02*
X19112500Y-6996000D01*
X19137500Y-10471000D02*
X19177500Y-10511000D01*
X19177500Y-10471000D02*
X19137500Y-10511000D01*
X19197500Y-10836350D02*
X19237500Y-10876350D01*
X19237500Y-10836350D02*
X19197500Y-10876350D01*
X19242000Y-8016491D02*
X19282000Y-8056491D01*
X19282000Y-8016491D02*
X19242000Y-8056491D01*
X19397500Y-10601000D02*
X19437500Y-10641000D01*
X19437500Y-10601000D02*
X19397500Y-10641000D01*
X19487500Y-6706000D02*
X19527500Y-6746000D01*
X19527500Y-6706000D02*
X19487500Y-6746000D01*
X19496000Y-8013654D02*
X19536000Y-8053654D01*
X19536000Y-8013654D02*
X19496000Y-8053654D01*
X19567500Y-9771000D02*
X19607500Y-9811000D01*
X19607500Y-9771000D02*
X19567500Y-9811000D01*
X19567500Y-10267000D02*
X19607500Y-10307000D01*
X19607500Y-10267000D02*
X19567500Y-10307000D01*
X19763133Y-8436000D02*
X19803133Y-8476000D01*
X19803133Y-8436000D02*
X19763133Y-8476000D01*
X19767219Y-8686000D02*
X19807219Y-8726000D01*
X19807219Y-8686000D02*
X19767219Y-8726000D01*
X19768500Y-8898000D02*
X19808500Y-8938000D01*
X19808500Y-8898000D02*
X19768500Y-8938000D01*
X19775390Y-9186000D02*
X19815390Y-9226000D01*
X19815390Y-9186000D02*
X19775390Y-9226000D01*
X19779476Y-9436000D02*
X19819476Y-9476000D01*
X19819476Y-9436000D02*
X19779476Y-9476000D01*
X19783562Y-9686000D02*
X19823562Y-9726000D01*
X19823562Y-9686000D02*
X19783562Y-9726000D01*
X19787648Y-9936000D02*
X19827648Y-9976000D01*
X19827648Y-9936000D02*
X19787648Y-9976000D01*
X19791734Y-10186000D02*
X19831734Y-10226000D01*
X19831734Y-10186000D02*
X19791734Y-10226000D01*
X19792500Y-10436000D02*
X19832500Y-10476000D01*
X19832500Y-10436000D02*
X19792500Y-10476000D01*
X19792500Y-10686000D02*
X19832500Y-10726000D01*
X19832500Y-10686000D02*
X19792500Y-10726000D01*
D10*
X10612500Y-7214000D02*
G75*
G03*
X10612500Y-7214000I-50000J0D01*
G01*
X10612500Y-7468000D02*
G75*
G03*
X10612500Y-7468000I-50000J0D01*
G01*
X10612500Y-7722000D02*
G75*
G03*
X10612500Y-7722000I-50000J0D01*
G01*
X10612500Y-7976000D02*
G75*
G03*
X10612500Y-7976000I-50000J0D01*
G01*
X10612500Y-8230000D02*
G75*
G03*
X10612500Y-8230000I-50000J0D01*
G01*
X10612500Y-8484000D02*
G75*
G03*
X10612500Y-8484000I-50000J0D01*
G01*
X10612500Y-8738000D02*
G75*
G03*
X10612500Y-8738000I-50000J0D01*
G01*
X10612500Y-8992000D02*
G75*
G03*
X10612500Y-8992000I-50000J0D01*
G01*
X10866500Y-6706000D02*
G75*
G03*
X10866500Y-6706000I-50000J0D01*
G01*
X10866500Y-7214000D02*
G75*
G03*
X10866500Y-7214000I-50000J0D01*
G01*
X10866500Y-7468000D02*
G75*
G03*
X10866500Y-7468000I-50000J0D01*
G01*
X10866500Y-7722000D02*
G75*
G03*
X10866500Y-7722000I-50000J0D01*
G01*
X10866500Y-7976000D02*
G75*
G03*
X10866500Y-7976000I-50000J0D01*
G01*
X10866500Y-8230000D02*
G75*
G03*
X10866500Y-8230000I-50000J0D01*
G01*
X10866500Y-8484000D02*
G75*
G03*
X10866500Y-8484000I-50000J0D01*
G01*
X10866500Y-8738000D02*
G75*
G03*
X10866500Y-8738000I-50000J0D01*
G01*
X10866500Y-8992000D02*
G75*
G03*
X10866500Y-8992000I-50000J0D01*
G01*
X11120500Y-6706000D02*
G75*
G03*
X11120500Y-6706000I-50000J0D01*
G01*
X11120500Y-7214000D02*
G75*
G03*
X11120500Y-7214000I-50000J0D01*
G01*
X11120500Y-7468000D02*
G75*
G03*
X11120500Y-7468000I-50000J0D01*
G01*
X11120500Y-7722000D02*
G75*
G03*
X11120500Y-7722000I-50000J0D01*
G01*
X11120500Y-7976000D02*
G75*
G03*
X11120500Y-7976000I-50000J0D01*
G01*
X11120500Y-8230000D02*
G75*
G03*
X11120500Y-8230000I-50000J0D01*
G01*
X11120500Y-8484000D02*
G75*
G03*
X11120500Y-8484000I-50000J0D01*
G01*
X11120500Y-8738000D02*
G75*
G03*
X11120500Y-8738000I-50000J0D01*
G01*
X11120500Y-8992000D02*
G75*
G03*
X11120500Y-8992000I-50000J0D01*
G01*
X11120500Y-9500000D02*
G75*
G03*
X11120500Y-9500000I-50000J0D01*
G01*
X11374500Y-6706000D02*
G75*
G03*
X11374500Y-6706000I-50000J0D01*
G01*
X11374500Y-7214000D02*
G75*
G03*
X11374500Y-7214000I-50000J0D01*
G01*
X11374500Y-7468000D02*
G75*
G03*
X11374500Y-7468000I-50000J0D01*
G01*
X11374500Y-7722000D02*
G75*
G03*
X11374500Y-7722000I-50000J0D01*
G01*
X11374500Y-7976000D02*
G75*
G03*
X11374500Y-7976000I-50000J0D01*
G01*
X11374500Y-8230000D02*
G75*
G03*
X11374500Y-8230000I-50000J0D01*
G01*
X11374500Y-8484000D02*
G75*
G03*
X11374500Y-8484000I-50000J0D01*
G01*
X11374500Y-8738000D02*
G75*
G03*
X11374500Y-8738000I-50000J0D01*
G01*
X11374500Y-8992000D02*
G75*
G03*
X11374500Y-8992000I-50000J0D01*
G01*
X11374500Y-9500000D02*
G75*
G03*
X11374500Y-9500000I-50000J0D01*
G01*
X11628500Y-6706000D02*
G75*
G03*
X11628500Y-6706000I-50000J0D01*
G01*
X11628500Y-7214000D02*
G75*
G03*
X11628500Y-7214000I-50000J0D01*
G01*
X11628500Y-7468000D02*
G75*
G03*
X11628500Y-7468000I-50000J0D01*
G01*
X11628500Y-7722000D02*
G75*
G03*
X11628500Y-7722000I-50000J0D01*
G01*
X11628500Y-7976000D02*
G75*
G03*
X11628500Y-7976000I-50000J0D01*
G01*
X11628500Y-8230000D02*
G75*
G03*
X11628500Y-8230000I-50000J0D01*
G01*
X11628500Y-8484000D02*
G75*
G03*
X11628500Y-8484000I-50000J0D01*
G01*
X11628500Y-8738000D02*
G75*
G03*
X11628500Y-8738000I-50000J0D01*
G01*
X11628500Y-8992000D02*
G75*
G03*
X11628500Y-8992000I-50000J0D01*
G01*
X11628500Y-9500000D02*
G75*
G03*
X11628500Y-9500000I-50000J0D01*
G01*
X11882500Y-6706000D02*
G75*
G03*
X11882500Y-6706000I-50000J0D01*
G01*
X11882500Y-7214000D02*
G75*
G03*
X11882500Y-7214000I-50000J0D01*
G01*
X11882500Y-7468000D02*
G75*
G03*
X11882500Y-7468000I-50000J0D01*
G01*
X11882500Y-7722000D02*
G75*
G03*
X11882500Y-7722000I-50000J0D01*
G01*
X11882500Y-7976000D02*
G75*
G03*
X11882500Y-7976000I-50000J0D01*
G01*
X11882500Y-8230000D02*
G75*
G03*
X11882500Y-8230000I-50000J0D01*
G01*
X11882500Y-8484000D02*
G75*
G03*
X11882500Y-8484000I-50000J0D01*
G01*
X11882500Y-8738000D02*
G75*
G03*
X11882500Y-8738000I-50000J0D01*
G01*
X11882500Y-8992000D02*
G75*
G03*
X11882500Y-8992000I-50000J0D01*
G01*
X11882500Y-9500000D02*
G75*
G03*
X11882500Y-9500000I-50000J0D01*
G01*
X12136500Y-6706000D02*
G75*
G03*
X12136500Y-6706000I-50000J0D01*
G01*
X12136500Y-7214000D02*
G75*
G03*
X12136500Y-7214000I-50000J0D01*
G01*
X12136500Y-7468000D02*
G75*
G03*
X12136500Y-7468000I-50000J0D01*
G01*
X12136500Y-7722000D02*
G75*
G03*
X12136500Y-7722000I-50000J0D01*
G01*
X12136500Y-7976000D02*
G75*
G03*
X12136500Y-7976000I-50000J0D01*
G01*
X12136500Y-8230000D02*
G75*
G03*
X12136500Y-8230000I-50000J0D01*
G01*
X12136500Y-8484000D02*
G75*
G03*
X12136500Y-8484000I-50000J0D01*
G01*
X12136500Y-8738000D02*
G75*
G03*
X12136500Y-8738000I-50000J0D01*
G01*
X12136500Y-8992000D02*
G75*
G03*
X12136500Y-8992000I-50000J0D01*
G01*
X12390500Y-6706000D02*
G75*
G03*
X12390500Y-6706000I-50000J0D01*
G01*
X12390500Y-7214000D02*
G75*
G03*
X12390500Y-7214000I-50000J0D01*
G01*
X12390500Y-7468000D02*
G75*
G03*
X12390500Y-7468000I-50000J0D01*
G01*
X12390500Y-7722000D02*
G75*
G03*
X12390500Y-7722000I-50000J0D01*
G01*
X12390500Y-7976000D02*
G75*
G03*
X12390500Y-7976000I-50000J0D01*
G01*
X12390500Y-8230000D02*
G75*
G03*
X12390500Y-8230000I-50000J0D01*
G01*
X12390500Y-8484000D02*
G75*
G03*
X12390500Y-8484000I-50000J0D01*
G01*
X12390500Y-8738000D02*
G75*
G03*
X12390500Y-8738000I-50000J0D01*
G01*
X12390500Y-8992000D02*
G75*
G03*
X12390500Y-8992000I-50000J0D01*
G01*
X12644500Y-7214000D02*
G75*
G03*
X12644500Y-7214000I-50000J0D01*
G01*
X12644500Y-7468000D02*
G75*
G03*
X12644500Y-7468000I-50000J0D01*
G01*
X12644500Y-7722000D02*
G75*
G03*
X12644500Y-7722000I-50000J0D01*
G01*
X12644500Y-7976000D02*
G75*
G03*
X12644500Y-7976000I-50000J0D01*
G01*
X12644500Y-8230000D02*
G75*
G03*
X12644500Y-8230000I-50000J0D01*
G01*
X12644500Y-8484000D02*
G75*
G03*
X12644500Y-8484000I-50000J0D01*
G01*
X12644500Y-8738000D02*
G75*
G03*
X12644500Y-8738000I-50000J0D01*
G01*
X12644500Y-8992000D02*
G75*
G03*
X12644500Y-8992000I-50000J0D01*
G01*
X18680000Y-7155000D02*
G75*
G03*
X18680000Y-7155000I-50000J0D01*
G01*
X19843999Y-6520000D02*
G75*
G03*
X19843999Y-6520000I-50000J0D01*
G01*
D13*
X14715860Y-6467500D02*
X14715860Y-6569500D01*
X14664860Y-6518500D02*
X14766860Y-6518500D01*
X14715860Y-8245500D02*
X14715860Y-8347500D01*
X14664860Y-8296500D02*
X14766860Y-8296500D01*
X14738860Y-7102500D02*
X14738860Y-7204500D01*
X14687860Y-7153500D02*
X14789860Y-7153500D01*
X14738860Y-7356500D02*
X14738860Y-7458500D01*
X14687860Y-7407500D02*
X14789860Y-7407500D01*
X14738860Y-7610500D02*
X14738860Y-7712500D01*
X14687860Y-7661500D02*
X14789860Y-7661500D01*
X14969860Y-6467500D02*
X14969860Y-6569500D01*
X14918860Y-6518500D02*
X15020860Y-6518500D01*
X14969860Y-8245500D02*
X14969860Y-8347500D01*
X14918860Y-8296500D02*
X15020860Y-8296500D01*
X15223860Y-6467500D02*
X15223860Y-6569500D01*
X15172860Y-6518500D02*
X15274860Y-6518500D01*
X15223860Y-8245500D02*
X15223860Y-8347500D01*
X15172860Y-8296500D02*
X15274860Y-8296500D01*
X15477860Y-6467500D02*
X15477860Y-6569500D01*
X15426860Y-6518500D02*
X15528860Y-6518500D01*
X15477860Y-8245500D02*
X15477860Y-8347500D01*
X15426860Y-8296500D02*
X15528860Y-8296500D01*
X15731860Y-6467500D02*
X15731860Y-6569500D01*
X15680860Y-6518500D02*
X15782860Y-6518500D01*
X15731860Y-8245500D02*
X15731860Y-8347500D01*
X15680860Y-8296500D02*
X15782860Y-8296500D01*
X15985860Y-6467500D02*
X15985860Y-6569500D01*
X15934860Y-6518500D02*
X16036860Y-6518500D01*
X15985860Y-8245500D02*
X15985860Y-8347500D01*
X15934860Y-8296500D02*
X16036860Y-8296500D01*
X16239860Y-6467500D02*
X16239860Y-6569500D01*
X16188860Y-6518500D02*
X16290860Y-6518500D01*
X16239860Y-8245500D02*
X16239860Y-8347500D01*
X16188860Y-8296500D02*
X16290860Y-8296500D01*
X16493860Y-6467500D02*
X16493860Y-6569500D01*
X16442860Y-6518500D02*
X16544860Y-6518500D01*
X16493860Y-8245500D02*
X16493860Y-8347500D01*
X16442860Y-8296500D02*
X16544860Y-8296500D01*
X16747860Y-6467500D02*
X16747860Y-6569500D01*
X16696860Y-6518500D02*
X16798860Y-6518500D01*
X16747860Y-8245500D02*
X16747860Y-8347500D01*
X16696860Y-8296500D02*
X16798860Y-8296500D01*
X17001860Y-6467500D02*
X17001860Y-6569500D01*
X16950860Y-6518500D02*
X17052860Y-6518500D01*
X17001860Y-8245500D02*
X17001860Y-8347500D01*
X16950860Y-8296500D02*
X17052860Y-8296500D01*
X17255860Y-6467500D02*
X17255860Y-6569500D01*
X17204860Y-6518500D02*
X17306860Y-6518500D01*
X17255860Y-8245500D02*
X17255860Y-8347500D01*
X17204860Y-8296500D02*
X17306860Y-8296500D01*
X17509860Y-6467500D02*
X17509860Y-6569500D01*
X17458860Y-6518500D02*
X17560860Y-6518500D01*
X17509860Y-8245500D02*
X17509860Y-8347500D01*
X17458860Y-8296500D02*
X17560860Y-8296500D01*
X17763860Y-6467500D02*
X17763860Y-6569500D01*
X17712860Y-6518500D02*
X17814860Y-6518500D01*
X17763860Y-8245500D02*
X17763860Y-8347500D01*
X17712860Y-8296500D02*
X17814860Y-8296500D01*
X18017860Y-6467500D02*
X18017860Y-6569500D01*
X17966860Y-6518500D02*
X18068860Y-6518500D01*
X18017860Y-8245500D02*
X18017860Y-8347500D01*
X17966860Y-8296500D02*
X18068860Y-8296500D01*
X18271860Y-6467500D02*
X18271860Y-6569500D01*
X18220860Y-6518500D02*
X18322860Y-6518500D01*
X18271860Y-8245500D02*
X18271860Y-8347500D01*
X18220860Y-8296500D02*
X18322860Y-8296500D01*
X18525860Y-6467500D02*
X18525860Y-6569500D01*
X18474860Y-6518500D02*
X18576860Y-6518500D01*
X18525860Y-8245500D02*
X18525860Y-8347500D01*
X18474860Y-8296500D02*
X18576860Y-8296500D01*
X18779860Y-6467500D02*
X18779860Y-6569500D01*
X18728860Y-6518500D02*
X18830860Y-6518500D01*
X18779860Y-8245500D02*
X18779860Y-8347500D01*
X18728860Y-8296500D02*
X18830860Y-8296500D01*
X19033860Y-6467500D02*
X19033860Y-6569500D01*
X18982860Y-6518500D02*
X19084860Y-6518500D01*
X19033860Y-8245500D02*
X19033860Y-8347500D01*
X18982860Y-8296500D02*
X19084860Y-8296500D01*
X19287860Y-6467500D02*
X19287860Y-6569500D01*
X19236860Y-6518500D02*
X19338860Y-6518500D01*
X19287860Y-8245500D02*
X19287860Y-8347500D01*
X19236860Y-8296500D02*
X19338860Y-8296500D01*
X19541860Y-6467500D02*
X19541860Y-6569500D01*
X19490860Y-6518500D02*
X19592860Y-6518500D01*
X19541860Y-8245500D02*
X19541860Y-8347500D01*
X19490860Y-8296500D02*
X19592860Y-8296500D01*
D14*
X10373389Y-11348389D02*
X10373389Y-11171611D01*
X10196611Y-11171611D01*
X10196611Y-11348389D01*
X10373389Y-11348389D01*
X19853389Y-11348389D02*
X19853389Y-11171611D01*
X19676611Y-11171611D01*
X19676611Y-11348389D01*
X19853389Y-11348389D01*
D11*
X10252619Y-12315476D02*
X10252619Y-12115476D01*
X10300238Y-12115476D01*
X10328810Y-12125000D01*
X10347857Y-12144048D01*
X10357381Y-12163095D01*
X10366905Y-12201190D01*
X10366905Y-12229762D01*
X10357381Y-12267857D01*
X10347857Y-12286905D01*
X10328810Y-12305952D01*
X10300238Y-12315476D01*
X10252619Y-12315476D01*
X10452619Y-12315476D02*
X10452619Y-12182143D01*
X10452619Y-12220238D02*
X10462143Y-12201190D01*
X10471667Y-12191667D01*
X10490714Y-12182143D01*
X10509762Y-12182143D01*
X10576429Y-12315476D02*
X10576429Y-12182143D01*
X10576429Y-12115476D02*
X10566905Y-12125000D01*
X10576429Y-12134524D01*
X10585952Y-12125000D01*
X10576429Y-12115476D01*
X10576429Y-12134524D01*
X10700238Y-12315476D02*
X10681190Y-12305952D01*
X10671667Y-12286905D01*
X10671667Y-12115476D01*
X10805000Y-12315476D02*
X10785952Y-12305952D01*
X10776429Y-12286905D01*
X10776429Y-12115476D01*
X11033571Y-12315476D02*
X11033571Y-12115476D01*
X11100238Y-12258333D01*
X11166905Y-12115476D01*
X11166905Y-12315476D01*
X11347857Y-12315476D02*
X11347857Y-12210714D01*
X11338333Y-12191667D01*
X11319286Y-12182143D01*
X11281190Y-12182143D01*
X11262143Y-12191667D01*
X11347857Y-12305952D02*
X11328809Y-12315476D01*
X11281190Y-12315476D01*
X11262143Y-12305952D01*
X11252619Y-12286905D01*
X11252619Y-12267857D01*
X11262143Y-12248809D01*
X11281190Y-12239286D01*
X11328809Y-12239286D01*
X11347857Y-12229762D01*
X11443095Y-12182143D02*
X11443095Y-12382143D01*
X11443095Y-12191667D02*
X11462143Y-12182143D01*
X11500238Y-12182143D01*
X11519286Y-12191667D01*
X11528809Y-12201190D01*
X11538333Y-12220238D01*
X11538333Y-12277381D01*
X11528809Y-12296428D01*
X11519286Y-12305952D01*
X11500238Y-12315476D01*
X11462143Y-12315476D01*
X11443095Y-12305952D01*
X11624048Y-12296428D02*
X11633571Y-12305952D01*
X11624048Y-12315476D01*
X11614524Y-12305952D01*
X11624048Y-12296428D01*
X11624048Y-12315476D01*
X11624048Y-12191667D02*
X11633571Y-12201190D01*
X11624048Y-12210714D01*
X11614524Y-12201190D01*
X11624048Y-12191667D01*
X11624048Y-12210714D01*
D12*
X9955000Y-12625000D02*
X9995000Y-12665000D01*
X9995000Y-12625000D02*
X9955000Y-12665000D01*
D11*
X10290714Y-12535476D02*
X10309762Y-12535476D01*
X10328810Y-12545000D01*
X10338333Y-12554524D01*
X10347857Y-12573571D01*
X10357381Y-12611667D01*
X10357381Y-12659286D01*
X10347857Y-12697381D01*
X10338333Y-12716428D01*
X10328810Y-12725952D01*
X10309762Y-12735476D01*
X10290714Y-12735476D01*
X10271667Y-12725952D01*
X10262143Y-12716428D01*
X10252619Y-12697381D01*
X10243095Y-12659286D01*
X10243095Y-12611667D01*
X10252619Y-12573571D01*
X10262143Y-12554524D01*
X10271667Y-12545000D01*
X10290714Y-12535476D01*
X10443095Y-12716428D02*
X10452619Y-12725952D01*
X10443095Y-12735476D01*
X10433571Y-12725952D01*
X10443095Y-12716428D01*
X10443095Y-12735476D01*
X10624048Y-12602143D02*
X10624048Y-12735476D01*
X10576429Y-12525952D02*
X10528810Y-12668809D01*
X10652619Y-12668809D01*
X10766905Y-12535476D02*
X10785952Y-12535476D01*
X10805000Y-12545000D01*
X10814524Y-12554524D01*
X10824048Y-12573571D01*
X10833571Y-12611667D01*
X10833571Y-12659286D01*
X10824048Y-12697381D01*
X10814524Y-12716428D01*
X10805000Y-12725952D01*
X10785952Y-12735476D01*
X10766905Y-12735476D01*
X10747857Y-12725952D01*
X10738333Y-12716428D01*
X10728810Y-12697381D01*
X10719286Y-12659286D01*
X10719286Y-12611667D01*
X10728810Y-12573571D01*
X10738333Y-12554524D01*
X10747857Y-12545000D01*
X10766905Y-12535476D01*
X10957381Y-12535476D02*
X10976429Y-12535476D01*
X10995476Y-12545000D01*
X11005000Y-12554524D01*
X11014524Y-12573571D01*
X11024048Y-12611667D01*
X11024048Y-12659286D01*
X11014524Y-12697381D01*
X11005000Y-12716428D01*
X10995476Y-12725952D01*
X10976429Y-12735476D01*
X10957381Y-12735476D01*
X10938333Y-12725952D01*
X10928810Y-12716428D01*
X10919286Y-12697381D01*
X10909762Y-12659286D01*
X10909762Y-12611667D01*
X10919286Y-12573571D01*
X10928810Y-12554524D01*
X10938333Y-12545000D01*
X10957381Y-12535476D01*
X11109762Y-12735476D02*
X11109762Y-12602143D01*
X11109762Y-12621190D02*
X11119286Y-12611667D01*
X11138333Y-12602143D01*
X11166905Y-12602143D01*
X11185952Y-12611667D01*
X11195476Y-12630714D01*
X11195476Y-12735476D01*
X11195476Y-12630714D02*
X11205000Y-12611667D01*
X11224048Y-12602143D01*
X11252619Y-12602143D01*
X11271667Y-12611667D01*
X11281190Y-12630714D01*
X11281190Y-12735476D01*
X11376428Y-12735476D02*
X11376428Y-12602143D01*
X11376428Y-12621190D02*
X11385952Y-12611667D01*
X11405000Y-12602143D01*
X11433571Y-12602143D01*
X11452619Y-12611667D01*
X11462143Y-12630714D01*
X11462143Y-12735476D01*
X11462143Y-12630714D02*
X11471667Y-12611667D01*
X11490714Y-12602143D01*
X11519286Y-12602143D01*
X11538333Y-12611667D01*
X11547857Y-12630714D01*
X11547857Y-12735476D01*
X11938333Y-12525952D02*
X11766905Y-12783095D01*
X12195476Y-12535476D02*
X12214524Y-12535476D01*
X12233571Y-12545000D01*
X12243095Y-12554524D01*
X12252619Y-12573571D01*
X12262143Y-12611667D01*
X12262143Y-12659286D01*
X12252619Y-12697381D01*
X12243095Y-12716428D01*
X12233571Y-12725952D01*
X12214524Y-12735476D01*
X12195476Y-12735476D01*
X12176428Y-12725952D01*
X12166905Y-12716428D01*
X12157381Y-12697381D01*
X12147857Y-12659286D01*
X12147857Y-12611667D01*
X12157381Y-12573571D01*
X12166905Y-12554524D01*
X12176428Y-12545000D01*
X12195476Y-12535476D01*
X12347857Y-12716428D02*
X12357381Y-12725952D01*
X12347857Y-12735476D01*
X12338333Y-12725952D01*
X12347857Y-12716428D01*
X12347857Y-12735476D01*
X12481190Y-12535476D02*
X12500238Y-12535476D01*
X12519286Y-12545000D01*
X12528809Y-12554524D01*
X12538333Y-12573571D01*
X12547857Y-12611667D01*
X12547857Y-12659286D01*
X12538333Y-12697381D01*
X12528809Y-12716428D01*
X12519286Y-12725952D01*
X12500238Y-12735476D01*
X12481190Y-12735476D01*
X12462143Y-12725952D01*
X12452619Y-12716428D01*
X12443095Y-12697381D01*
X12433571Y-12659286D01*
X12433571Y-12611667D01*
X12443095Y-12573571D01*
X12452619Y-12554524D01*
X12462143Y-12545000D01*
X12481190Y-12535476D01*
X12738333Y-12735476D02*
X12624048Y-12735476D01*
X12681190Y-12735476D02*
X12681190Y-12535476D01*
X12662143Y-12564048D01*
X12643095Y-12583095D01*
X12624048Y-12592619D01*
X12919286Y-12535476D02*
X12824048Y-12535476D01*
X12814524Y-12630714D01*
X12824048Y-12621190D01*
X12843095Y-12611667D01*
X12890714Y-12611667D01*
X12909762Y-12621190D01*
X12919286Y-12630714D01*
X12928809Y-12649762D01*
X12928809Y-12697381D01*
X12919286Y-12716428D01*
X12909762Y-12725952D01*
X12890714Y-12735476D01*
X12843095Y-12735476D01*
X12824048Y-12725952D01*
X12814524Y-12716428D01*
X12995476Y-12535476D02*
X13128809Y-12535476D01*
X13043095Y-12735476D01*
X13195476Y-12535476D02*
X13195476Y-12573571D01*
X13271667Y-12535476D02*
X13271667Y-12573571D01*
X13566905Y-12811667D02*
X13557381Y-12802143D01*
X13538333Y-12773571D01*
X13528809Y-12754524D01*
X13519286Y-12725952D01*
X13509762Y-12678333D01*
X13509762Y-12640238D01*
X13519286Y-12592619D01*
X13528809Y-12564048D01*
X13538333Y-12545000D01*
X13557381Y-12516428D01*
X13566905Y-12506905D01*
X13747857Y-12735476D02*
X13633571Y-12735476D01*
X13690714Y-12735476D02*
X13690714Y-12535476D01*
X13671667Y-12564048D01*
X13652619Y-12583095D01*
X13633571Y-12592619D01*
X13814524Y-12535476D02*
X13947857Y-12535476D01*
X13862143Y-12735476D01*
X14109762Y-12602143D02*
X14109762Y-12735476D01*
X14062143Y-12525952D02*
X14014524Y-12668809D01*
X14138333Y-12668809D01*
X14366905Y-12735476D02*
X14366905Y-12535476D01*
X14452619Y-12735476D02*
X14452619Y-12630714D01*
X14443095Y-12611667D01*
X14424048Y-12602143D01*
X14395476Y-12602143D01*
X14376428Y-12611667D01*
X14366905Y-12621190D01*
X14576428Y-12735476D02*
X14557381Y-12725952D01*
X14547857Y-12716428D01*
X14538333Y-12697381D01*
X14538333Y-12640238D01*
X14547857Y-12621190D01*
X14557381Y-12611667D01*
X14576428Y-12602143D01*
X14605000Y-12602143D01*
X14624048Y-12611667D01*
X14633571Y-12621190D01*
X14643095Y-12640238D01*
X14643095Y-12697381D01*
X14633571Y-12716428D01*
X14624048Y-12725952D01*
X14605000Y-12735476D01*
X14576428Y-12735476D01*
X14757381Y-12735476D02*
X14738333Y-12725952D01*
X14728809Y-12706905D01*
X14728809Y-12535476D01*
X14909762Y-12725952D02*
X14890714Y-12735476D01*
X14852619Y-12735476D01*
X14833571Y-12725952D01*
X14824048Y-12706905D01*
X14824048Y-12630714D01*
X14833571Y-12611667D01*
X14852619Y-12602143D01*
X14890714Y-12602143D01*
X14909762Y-12611667D01*
X14919286Y-12630714D01*
X14919286Y-12649762D01*
X14824048Y-12668809D01*
X14995476Y-12725952D02*
X15014524Y-12735476D01*
X15052619Y-12735476D01*
X15071667Y-12725952D01*
X15081190Y-12706905D01*
X15081190Y-12697381D01*
X15071667Y-12678333D01*
X15052619Y-12668809D01*
X15024048Y-12668809D01*
X15005000Y-12659286D01*
X14995476Y-12640238D01*
X14995476Y-12630714D01*
X15005000Y-12611667D01*
X15024048Y-12602143D01*
X15052619Y-12602143D01*
X15071667Y-12611667D01*
X15147857Y-12811667D02*
X15157381Y-12802143D01*
X15176428Y-12773571D01*
X15185952Y-12754524D01*
X15195476Y-12725952D01*
X15205000Y-12678333D01*
X15205000Y-12640238D01*
X15195476Y-12592619D01*
X15185952Y-12564048D01*
X15176428Y-12545000D01*
X15157381Y-12516428D01*
X15147857Y-12506905D01*
D10*
X9995000Y-12909000D02*
G75*
G03*
X9995000Y-12909000I-50000J0D01*
G01*
D11*
X10357381Y-12999476D02*
X10243095Y-12999476D01*
X10300238Y-12999476D02*
X10300238Y-12799476D01*
X10281190Y-12828048D01*
X10262143Y-12847095D01*
X10243095Y-12856619D01*
X10443095Y-12980428D02*
X10452619Y-12989952D01*
X10443095Y-12999476D01*
X10433571Y-12989952D01*
X10443095Y-12980428D01*
X10443095Y-12999476D01*
X10576429Y-12799476D02*
X10595476Y-12799476D01*
X10614524Y-12809000D01*
X10624048Y-12818524D01*
X10633571Y-12837571D01*
X10643095Y-12875667D01*
X10643095Y-12923286D01*
X10633571Y-12961381D01*
X10624048Y-12980428D01*
X10614524Y-12989952D01*
X10595476Y-12999476D01*
X10576429Y-12999476D01*
X10557381Y-12989952D01*
X10547857Y-12980428D01*
X10538333Y-12961381D01*
X10528810Y-12923286D01*
X10528810Y-12875667D01*
X10538333Y-12837571D01*
X10547857Y-12818524D01*
X10557381Y-12809000D01*
X10576429Y-12799476D01*
X10766905Y-12799476D02*
X10785952Y-12799476D01*
X10805000Y-12809000D01*
X10814524Y-12818524D01*
X10824048Y-12837571D01*
X10833571Y-12875667D01*
X10833571Y-12923286D01*
X10824048Y-12961381D01*
X10814524Y-12980428D01*
X10805000Y-12989952D01*
X10785952Y-12999476D01*
X10766905Y-12999476D01*
X10747857Y-12989952D01*
X10738333Y-12980428D01*
X10728810Y-12961381D01*
X10719286Y-12923286D01*
X10719286Y-12875667D01*
X10728810Y-12837571D01*
X10738333Y-12818524D01*
X10747857Y-12809000D01*
X10766905Y-12799476D01*
X10957381Y-12799476D02*
X10976429Y-12799476D01*
X10995476Y-12809000D01*
X11005000Y-12818524D01*
X11014524Y-12837571D01*
X11024048Y-12875667D01*
X11024048Y-12923286D01*
X11014524Y-12961381D01*
X11005000Y-12980428D01*
X10995476Y-12989952D01*
X10976429Y-12999476D01*
X10957381Y-12999476D01*
X10938333Y-12989952D01*
X10928810Y-12980428D01*
X10919286Y-12961381D01*
X10909762Y-12923286D01*
X10909762Y-12875667D01*
X10919286Y-12837571D01*
X10928810Y-12818524D01*
X10938333Y-12809000D01*
X10957381Y-12799476D01*
X11109762Y-12999476D02*
X11109762Y-12866143D01*
X11109762Y-12885190D02*
X11119286Y-12875667D01*
X11138333Y-12866143D01*
X11166905Y-12866143D01*
X11185952Y-12875667D01*
X11195476Y-12894714D01*
X11195476Y-12999476D01*
X11195476Y-12894714D02*
X11205000Y-12875667D01*
X11224048Y-12866143D01*
X11252619Y-12866143D01*
X11271667Y-12875667D01*
X11281190Y-12894714D01*
X11281190Y-12999476D01*
X11376428Y-12999476D02*
X11376428Y-12866143D01*
X11376428Y-12885190D02*
X11385952Y-12875667D01*
X11405000Y-12866143D01*
X11433571Y-12866143D01*
X11452619Y-12875667D01*
X11462143Y-12894714D01*
X11462143Y-12999476D01*
X11462143Y-12894714D02*
X11471667Y-12875667D01*
X11490714Y-12866143D01*
X11519286Y-12866143D01*
X11538333Y-12875667D01*
X11547857Y-12894714D01*
X11547857Y-12999476D01*
X11938333Y-12789952D02*
X11766905Y-13047095D01*
X12195476Y-12799476D02*
X12214524Y-12799476D01*
X12233571Y-12809000D01*
X12243095Y-12818524D01*
X12252619Y-12837571D01*
X12262143Y-12875667D01*
X12262143Y-12923286D01*
X12252619Y-12961381D01*
X12243095Y-12980428D01*
X12233571Y-12989952D01*
X12214524Y-12999476D01*
X12195476Y-12999476D01*
X12176428Y-12989952D01*
X12166905Y-12980428D01*
X12157381Y-12961381D01*
X12147857Y-12923286D01*
X12147857Y-12875667D01*
X12157381Y-12837571D01*
X12166905Y-12818524D01*
X12176428Y-12809000D01*
X12195476Y-12799476D01*
X12347857Y-12980428D02*
X12357381Y-12989952D01*
X12347857Y-12999476D01*
X12338333Y-12989952D01*
X12347857Y-12980428D01*
X12347857Y-12999476D01*
X12481190Y-12799476D02*
X12500238Y-12799476D01*
X12519286Y-12809000D01*
X12528809Y-12818524D01*
X12538333Y-12837571D01*
X12547857Y-12875667D01*
X12547857Y-12923286D01*
X12538333Y-12961381D01*
X12528809Y-12980428D01*
X12519286Y-12989952D01*
X12500238Y-12999476D01*
X12481190Y-12999476D01*
X12462143Y-12989952D01*
X12452619Y-12980428D01*
X12443095Y-12961381D01*
X12433571Y-12923286D01*
X12433571Y-12875667D01*
X12443095Y-12837571D01*
X12452619Y-12818524D01*
X12462143Y-12809000D01*
X12481190Y-12799476D01*
X12614524Y-12799476D02*
X12738333Y-12799476D01*
X12671667Y-12875667D01*
X12700238Y-12875667D01*
X12719286Y-12885190D01*
X12728809Y-12894714D01*
X12738333Y-12913762D01*
X12738333Y-12961381D01*
X12728809Y-12980428D01*
X12719286Y-12989952D01*
X12700238Y-12999476D01*
X12643095Y-12999476D01*
X12624048Y-12989952D01*
X12614524Y-12980428D01*
X12833571Y-12999476D02*
X12871667Y-12999476D01*
X12890714Y-12989952D01*
X12900238Y-12980428D01*
X12919286Y-12951857D01*
X12928809Y-12913762D01*
X12928809Y-12837571D01*
X12919286Y-12818524D01*
X12909762Y-12809000D01*
X12890714Y-12799476D01*
X12852619Y-12799476D01*
X12833571Y-12809000D01*
X12824048Y-12818524D01*
X12814524Y-12837571D01*
X12814524Y-12885190D01*
X12824048Y-12904238D01*
X12833571Y-12913762D01*
X12852619Y-12923286D01*
X12890714Y-12923286D01*
X12909762Y-12913762D01*
X12919286Y-12904238D01*
X12928809Y-12885190D01*
X13100238Y-12866143D02*
X13100238Y-12999476D01*
X13052619Y-12789952D02*
X13005000Y-12932809D01*
X13128809Y-12932809D01*
X13195476Y-12799476D02*
X13195476Y-12837571D01*
X13271667Y-12799476D02*
X13271667Y-12837571D01*
X13566905Y-13075667D02*
X13557381Y-13066143D01*
X13538333Y-13037571D01*
X13528809Y-13018524D01*
X13519286Y-12989952D01*
X13509762Y-12942333D01*
X13509762Y-12904238D01*
X13519286Y-12856619D01*
X13528809Y-12828048D01*
X13538333Y-12809000D01*
X13557381Y-12780428D01*
X13566905Y-12770905D01*
X13671667Y-12885190D02*
X13652619Y-12875667D01*
X13643095Y-12866143D01*
X13633571Y-12847095D01*
X13633571Y-12837571D01*
X13643095Y-12818524D01*
X13652619Y-12809000D01*
X13671667Y-12799476D01*
X13709762Y-12799476D01*
X13728809Y-12809000D01*
X13738333Y-12818524D01*
X13747857Y-12837571D01*
X13747857Y-12847095D01*
X13738333Y-12866143D01*
X13728809Y-12875667D01*
X13709762Y-12885190D01*
X13671667Y-12885190D01*
X13652619Y-12894714D01*
X13643095Y-12904238D01*
X13633571Y-12923286D01*
X13633571Y-12961381D01*
X13643095Y-12980428D01*
X13652619Y-12989952D01*
X13671667Y-12999476D01*
X13709762Y-12999476D01*
X13728809Y-12989952D01*
X13738333Y-12980428D01*
X13747857Y-12961381D01*
X13747857Y-12923286D01*
X13738333Y-12904238D01*
X13728809Y-12894714D01*
X13709762Y-12885190D01*
X13928809Y-12799476D02*
X13833571Y-12799476D01*
X13824048Y-12894714D01*
X13833571Y-12885190D01*
X13852619Y-12875667D01*
X13900238Y-12875667D01*
X13919286Y-12885190D01*
X13928809Y-12894714D01*
X13938333Y-12913762D01*
X13938333Y-12961381D01*
X13928809Y-12980428D01*
X13919286Y-12989952D01*
X13900238Y-12999476D01*
X13852619Y-12999476D01*
X13833571Y-12989952D01*
X13824048Y-12980428D01*
X14176428Y-12999476D02*
X14176428Y-12799476D01*
X14262143Y-12999476D02*
X14262143Y-12894714D01*
X14252619Y-12875667D01*
X14233571Y-12866143D01*
X14205000Y-12866143D01*
X14185952Y-12875667D01*
X14176428Y-12885190D01*
X14385952Y-12999476D02*
X14366905Y-12989952D01*
X14357381Y-12980428D01*
X14347857Y-12961381D01*
X14347857Y-12904238D01*
X14357381Y-12885190D01*
X14366905Y-12875667D01*
X14385952Y-12866143D01*
X14414524Y-12866143D01*
X14433571Y-12875667D01*
X14443095Y-12885190D01*
X14452619Y-12904238D01*
X14452619Y-12961381D01*
X14443095Y-12980428D01*
X14433571Y-12989952D01*
X14414524Y-12999476D01*
X14385952Y-12999476D01*
X14566905Y-12999476D02*
X14547857Y-12989952D01*
X14538333Y-12970905D01*
X14538333Y-12799476D01*
X14719286Y-12989952D02*
X14700238Y-12999476D01*
X14662143Y-12999476D01*
X14643095Y-12989952D01*
X14633571Y-12970905D01*
X14633571Y-12894714D01*
X14643095Y-12875667D01*
X14662143Y-12866143D01*
X14700238Y-12866143D01*
X14719286Y-12875667D01*
X14728809Y-12894714D01*
X14728809Y-12913762D01*
X14633571Y-12932809D01*
X14805000Y-12989952D02*
X14824048Y-12999476D01*
X14862143Y-12999476D01*
X14881190Y-12989952D01*
X14890714Y-12970905D01*
X14890714Y-12961381D01*
X14881190Y-12942333D01*
X14862143Y-12932809D01*
X14833571Y-12932809D01*
X14814524Y-12923286D01*
X14805000Y-12904238D01*
X14805000Y-12894714D01*
X14814524Y-12875667D01*
X14833571Y-12866143D01*
X14862143Y-12866143D01*
X14881190Y-12875667D01*
X14957381Y-13075667D02*
X14966905Y-13066143D01*
X14985952Y-13037571D01*
X14995476Y-13018524D01*
X15005000Y-12989952D01*
X15014524Y-12942333D01*
X15014524Y-12904238D01*
X15005000Y-12856619D01*
X14995476Y-12828048D01*
X14985952Y-12809000D01*
X14966905Y-12780428D01*
X14957381Y-12770905D01*
D13*
X9944000Y-13122000D02*
X9944000Y-13224000D01*
X9893000Y-13173000D02*
X9995000Y-13173000D01*
D11*
X10357381Y-13263476D02*
X10243095Y-13263476D01*
X10300238Y-13263476D02*
X10300238Y-13063476D01*
X10281190Y-13092048D01*
X10262143Y-13111095D01*
X10243095Y-13120619D01*
X10443095Y-13244428D02*
X10452619Y-13253952D01*
X10443095Y-13263476D01*
X10433571Y-13253952D01*
X10443095Y-13244428D01*
X10443095Y-13263476D01*
X10576429Y-13063476D02*
X10595476Y-13063476D01*
X10614524Y-13073000D01*
X10624048Y-13082524D01*
X10633571Y-13101571D01*
X10643095Y-13139667D01*
X10643095Y-13187286D01*
X10633571Y-13225381D01*
X10624048Y-13244428D01*
X10614524Y-13253952D01*
X10595476Y-13263476D01*
X10576429Y-13263476D01*
X10557381Y-13253952D01*
X10547857Y-13244428D01*
X10538333Y-13225381D01*
X10528810Y-13187286D01*
X10528810Y-13139667D01*
X10538333Y-13101571D01*
X10547857Y-13082524D01*
X10557381Y-13073000D01*
X10576429Y-13063476D01*
X10719286Y-13082524D02*
X10728810Y-13073000D01*
X10747857Y-13063476D01*
X10795476Y-13063476D01*
X10814524Y-13073000D01*
X10824048Y-13082524D01*
X10833571Y-13101571D01*
X10833571Y-13120619D01*
X10824048Y-13149190D01*
X10709762Y-13263476D01*
X10833571Y-13263476D01*
X10957381Y-13063476D02*
X10976429Y-13063476D01*
X10995476Y-13073000D01*
X11005000Y-13082524D01*
X11014524Y-13101571D01*
X11024048Y-13139667D01*
X11024048Y-13187286D01*
X11014524Y-13225381D01*
X11005000Y-13244428D01*
X10995476Y-13253952D01*
X10976429Y-13263476D01*
X10957381Y-13263476D01*
X10938333Y-13253952D01*
X10928810Y-13244428D01*
X10919286Y-13225381D01*
X10909762Y-13187286D01*
X10909762Y-13139667D01*
X10919286Y-13101571D01*
X10928810Y-13082524D01*
X10938333Y-13073000D01*
X10957381Y-13063476D01*
X11109762Y-13263476D02*
X11109762Y-13130143D01*
X11109762Y-13149190D02*
X11119286Y-13139667D01*
X11138333Y-13130143D01*
X11166905Y-13130143D01*
X11185952Y-13139667D01*
X11195476Y-13158714D01*
X11195476Y-13263476D01*
X11195476Y-13158714D02*
X11205000Y-13139667D01*
X11224048Y-13130143D01*
X11252619Y-13130143D01*
X11271667Y-13139667D01*
X11281190Y-13158714D01*
X11281190Y-13263476D01*
X11376428Y-13263476D02*
X11376428Y-13130143D01*
X11376428Y-13149190D02*
X11385952Y-13139667D01*
X11405000Y-13130143D01*
X11433571Y-13130143D01*
X11452619Y-13139667D01*
X11462143Y-13158714D01*
X11462143Y-13263476D01*
X11462143Y-13158714D02*
X11471667Y-13139667D01*
X11490714Y-13130143D01*
X11519286Y-13130143D01*
X11538333Y-13139667D01*
X11547857Y-13158714D01*
X11547857Y-13263476D01*
X11938333Y-13053952D02*
X11766905Y-13311095D01*
X12195476Y-13063476D02*
X12214524Y-13063476D01*
X12233571Y-13073000D01*
X12243095Y-13082524D01*
X12252619Y-13101571D01*
X12262143Y-13139667D01*
X12262143Y-13187286D01*
X12252619Y-13225381D01*
X12243095Y-13244428D01*
X12233571Y-13253952D01*
X12214524Y-13263476D01*
X12195476Y-13263476D01*
X12176428Y-13253952D01*
X12166905Y-13244428D01*
X12157381Y-13225381D01*
X12147857Y-13187286D01*
X12147857Y-13139667D01*
X12157381Y-13101571D01*
X12166905Y-13082524D01*
X12176428Y-13073000D01*
X12195476Y-13063476D01*
X12347857Y-13244428D02*
X12357381Y-13253952D01*
X12347857Y-13263476D01*
X12338333Y-13253952D01*
X12347857Y-13244428D01*
X12347857Y-13263476D01*
X12481190Y-13063476D02*
X12500238Y-13063476D01*
X12519286Y-13073000D01*
X12528809Y-13082524D01*
X12538333Y-13101571D01*
X12547857Y-13139667D01*
X12547857Y-13187286D01*
X12538333Y-13225381D01*
X12528809Y-13244428D01*
X12519286Y-13253952D01*
X12500238Y-13263476D01*
X12481190Y-13263476D01*
X12462143Y-13253952D01*
X12452619Y-13244428D01*
X12443095Y-13225381D01*
X12433571Y-13187286D01*
X12433571Y-13139667D01*
X12443095Y-13101571D01*
X12452619Y-13082524D01*
X12462143Y-13073000D01*
X12481190Y-13063476D01*
X12719286Y-13130143D02*
X12719286Y-13263476D01*
X12671667Y-13053952D02*
X12624048Y-13196809D01*
X12747857Y-13196809D01*
X12862143Y-13063476D02*
X12881190Y-13063476D01*
X12900238Y-13073000D01*
X12909762Y-13082524D01*
X12919286Y-13101571D01*
X12928809Y-13139667D01*
X12928809Y-13187286D01*
X12919286Y-13225381D01*
X12909762Y-13244428D01*
X12900238Y-13253952D01*
X12881190Y-13263476D01*
X12862143Y-13263476D01*
X12843095Y-13253952D01*
X12833571Y-13244428D01*
X12824048Y-13225381D01*
X12814524Y-13187286D01*
X12814524Y-13139667D01*
X12824048Y-13101571D01*
X12833571Y-13082524D01*
X12843095Y-13073000D01*
X12862143Y-13063476D01*
X13005000Y-13082524D02*
X13014524Y-13073000D01*
X13033571Y-13063476D01*
X13081190Y-13063476D01*
X13100238Y-13073000D01*
X13109762Y-13082524D01*
X13119286Y-13101571D01*
X13119286Y-13120619D01*
X13109762Y-13149190D01*
X12995476Y-13263476D01*
X13119286Y-13263476D01*
X13195476Y-13063476D02*
X13195476Y-13101571D01*
X13271667Y-13063476D02*
X13271667Y-13101571D01*
X13566905Y-13339667D02*
X13557381Y-13330143D01*
X13538333Y-13301571D01*
X13528809Y-13282524D01*
X13519286Y-13253952D01*
X13509762Y-13206333D01*
X13509762Y-13168238D01*
X13519286Y-13120619D01*
X13528809Y-13092048D01*
X13538333Y-13073000D01*
X13557381Y-13044428D01*
X13566905Y-13034905D01*
X13728809Y-13130143D02*
X13728809Y-13263476D01*
X13681190Y-13053952D02*
X13633571Y-13196809D01*
X13757381Y-13196809D01*
X13814524Y-13063476D02*
X13938333Y-13063476D01*
X13871667Y-13139667D01*
X13900238Y-13139667D01*
X13919286Y-13149190D01*
X13928809Y-13158714D01*
X13938333Y-13177762D01*
X13938333Y-13225381D01*
X13928809Y-13244428D01*
X13919286Y-13253952D01*
X13900238Y-13263476D01*
X13843095Y-13263476D01*
X13824048Y-13253952D01*
X13814524Y-13244428D01*
X14176428Y-13263476D02*
X14176428Y-13063476D01*
X14262143Y-13263476D02*
X14262143Y-13158714D01*
X14252619Y-13139667D01*
X14233571Y-13130143D01*
X14205000Y-13130143D01*
X14185952Y-13139667D01*
X14176428Y-13149190D01*
X14385952Y-13263476D02*
X14366905Y-13253952D01*
X14357381Y-13244428D01*
X14347857Y-13225381D01*
X14347857Y-13168238D01*
X14357381Y-13149190D01*
X14366905Y-13139667D01*
X14385952Y-13130143D01*
X14414524Y-13130143D01*
X14433571Y-13139667D01*
X14443095Y-13149190D01*
X14452619Y-13168238D01*
X14452619Y-13225381D01*
X14443095Y-13244428D01*
X14433571Y-13253952D01*
X14414524Y-13263476D01*
X14385952Y-13263476D01*
X14566905Y-13263476D02*
X14547857Y-13253952D01*
X14538333Y-13234905D01*
X14538333Y-13063476D01*
X14719286Y-13253952D02*
X14700238Y-13263476D01*
X14662143Y-13263476D01*
X14643095Y-13253952D01*
X14633571Y-13234905D01*
X14633571Y-13158714D01*
X14643095Y-13139667D01*
X14662143Y-13130143D01*
X14700238Y-13130143D01*
X14719286Y-13139667D01*
X14728809Y-13158714D01*
X14728809Y-13177762D01*
X14633571Y-13196809D01*
X14805000Y-13253952D02*
X14824048Y-13263476D01*
X14862143Y-13263476D01*
X14881190Y-13253952D01*
X14890714Y-13234905D01*
X14890714Y-13225381D01*
X14881190Y-13206333D01*
X14862143Y-13196809D01*
X14833571Y-13196809D01*
X14814524Y-13187286D01*
X14805000Y-13168238D01*
X14805000Y-13158714D01*
X14814524Y-13139667D01*
X14833571Y-13130143D01*
X14862143Y-13130143D01*
X14881190Y-13139667D01*
X14957381Y-13339667D02*
X14966905Y-13330143D01*
X14985952Y-13301571D01*
X14995476Y-13282524D01*
X15005000Y-13253952D01*
X15014524Y-13206333D01*
X15014524Y-13168238D01*
X15005000Y-13120619D01*
X14995476Y-13092048D01*
X14985952Y-13073000D01*
X14966905Y-13044428D01*
X14957381Y-13034905D01*
X9965711Y-13507711D02*
X9965711Y-13366289D01*
X9824289Y-13366289D01*
X9824289Y-13507711D01*
X9965711Y-13507711D01*
X10243095Y-13346524D02*
X10252619Y-13337000D01*
X10271667Y-13327476D01*
X10319286Y-13327476D01*
X10338333Y-13337000D01*
X10347857Y-13346524D01*
X10357381Y-13365571D01*
X10357381Y-13384619D01*
X10347857Y-13413190D01*
X10233571Y-13527476D01*
X10357381Y-13527476D01*
X10443095Y-13508428D02*
X10452619Y-13517952D01*
X10443095Y-13527476D01*
X10433571Y-13517952D01*
X10443095Y-13508428D01*
X10443095Y-13527476D01*
X10633571Y-13327476D02*
X10538333Y-13327476D01*
X10528810Y-13422714D01*
X10538333Y-13413190D01*
X10557381Y-13403667D01*
X10605000Y-13403667D01*
X10624048Y-13413190D01*
X10633571Y-13422714D01*
X10643095Y-13441762D01*
X10643095Y-13489381D01*
X10633571Y-13508428D01*
X10624048Y-13517952D01*
X10605000Y-13527476D01*
X10557381Y-13527476D01*
X10538333Y-13517952D01*
X10528810Y-13508428D01*
X10766905Y-13327476D02*
X10785952Y-13327476D01*
X10805000Y-13337000D01*
X10814524Y-13346524D01*
X10824048Y-13365571D01*
X10833571Y-13403667D01*
X10833571Y-13451286D01*
X10824048Y-13489381D01*
X10814524Y-13508428D01*
X10805000Y-13517952D01*
X10785952Y-13527476D01*
X10766905Y-13527476D01*
X10747857Y-13517952D01*
X10738333Y-13508428D01*
X10728810Y-13489381D01*
X10719286Y-13451286D01*
X10719286Y-13403667D01*
X10728810Y-13365571D01*
X10738333Y-13346524D01*
X10747857Y-13337000D01*
X10766905Y-13327476D01*
X10957381Y-13327476D02*
X10976429Y-13327476D01*
X10995476Y-13337000D01*
X11005000Y-13346524D01*
X11014524Y-13365571D01*
X11024048Y-13403667D01*
X11024048Y-13451286D01*
X11014524Y-13489381D01*
X11005000Y-13508428D01*
X10995476Y-13517952D01*
X10976429Y-13527476D01*
X10957381Y-13527476D01*
X10938333Y-13517952D01*
X10928810Y-13508428D01*
X10919286Y-13489381D01*
X10909762Y-13451286D01*
X10909762Y-13403667D01*
X10919286Y-13365571D01*
X10928810Y-13346524D01*
X10938333Y-13337000D01*
X10957381Y-13327476D01*
X11109762Y-13527476D02*
X11109762Y-13394143D01*
X11109762Y-13413190D02*
X11119286Y-13403667D01*
X11138333Y-13394143D01*
X11166905Y-13394143D01*
X11185952Y-13403667D01*
X11195476Y-13422714D01*
X11195476Y-13527476D01*
X11195476Y-13422714D02*
X11205000Y-13403667D01*
X11224048Y-13394143D01*
X11252619Y-13394143D01*
X11271667Y-13403667D01*
X11281190Y-13422714D01*
X11281190Y-13527476D01*
X11376428Y-13527476D02*
X11376428Y-13394143D01*
X11376428Y-13413190D02*
X11385952Y-13403667D01*
X11405000Y-13394143D01*
X11433571Y-13394143D01*
X11452619Y-13403667D01*
X11462143Y-13422714D01*
X11462143Y-13527476D01*
X11462143Y-13422714D02*
X11471667Y-13403667D01*
X11490714Y-13394143D01*
X11519286Y-13394143D01*
X11538333Y-13403667D01*
X11547857Y-13422714D01*
X11547857Y-13527476D01*
X11938333Y-13317952D02*
X11766905Y-13575095D01*
X12195476Y-13327476D02*
X12214524Y-13327476D01*
X12233571Y-13337000D01*
X12243095Y-13346524D01*
X12252619Y-13365571D01*
X12262143Y-13403667D01*
X12262143Y-13451286D01*
X12252619Y-13489381D01*
X12243095Y-13508428D01*
X12233571Y-13517952D01*
X12214524Y-13527476D01*
X12195476Y-13527476D01*
X12176428Y-13517952D01*
X12166905Y-13508428D01*
X12157381Y-13489381D01*
X12147857Y-13451286D01*
X12147857Y-13403667D01*
X12157381Y-13365571D01*
X12166905Y-13346524D01*
X12176428Y-13337000D01*
X12195476Y-13327476D01*
X12347857Y-13508428D02*
X12357381Y-13517952D01*
X12347857Y-13527476D01*
X12338333Y-13517952D01*
X12347857Y-13508428D01*
X12347857Y-13527476D01*
X12481190Y-13327476D02*
X12500238Y-13327476D01*
X12519286Y-13337000D01*
X12528809Y-13346524D01*
X12538333Y-13365571D01*
X12547857Y-13403667D01*
X12547857Y-13451286D01*
X12538333Y-13489381D01*
X12528809Y-13508428D01*
X12519286Y-13517952D01*
X12500238Y-13527476D01*
X12481190Y-13527476D01*
X12462143Y-13517952D01*
X12452619Y-13508428D01*
X12443095Y-13489381D01*
X12433571Y-13451286D01*
X12433571Y-13403667D01*
X12443095Y-13365571D01*
X12452619Y-13346524D01*
X12462143Y-13337000D01*
X12481190Y-13327476D01*
X12643095Y-13527476D02*
X12681190Y-13527476D01*
X12700238Y-13517952D01*
X12709762Y-13508428D01*
X12728809Y-13479857D01*
X12738333Y-13441762D01*
X12738333Y-13365571D01*
X12728809Y-13346524D01*
X12719286Y-13337000D01*
X12700238Y-13327476D01*
X12662143Y-13327476D01*
X12643095Y-13337000D01*
X12633571Y-13346524D01*
X12624048Y-13365571D01*
X12624048Y-13413190D01*
X12633571Y-13432238D01*
X12643095Y-13441762D01*
X12662143Y-13451286D01*
X12700238Y-13451286D01*
X12719286Y-13441762D01*
X12728809Y-13432238D01*
X12738333Y-13413190D01*
X12852619Y-13413190D02*
X12833571Y-13403667D01*
X12824048Y-13394143D01*
X12814524Y-13375095D01*
X12814524Y-13365571D01*
X12824048Y-13346524D01*
X12833571Y-13337000D01*
X12852619Y-13327476D01*
X12890714Y-13327476D01*
X12909762Y-13337000D01*
X12919286Y-13346524D01*
X12928809Y-13365571D01*
X12928809Y-13375095D01*
X12919286Y-13394143D01*
X12909762Y-13403667D01*
X12890714Y-13413190D01*
X12852619Y-13413190D01*
X12833571Y-13422714D01*
X12824048Y-13432238D01*
X12814524Y-13451286D01*
X12814524Y-13489381D01*
X12824048Y-13508428D01*
X12833571Y-13517952D01*
X12852619Y-13527476D01*
X12890714Y-13527476D01*
X12909762Y-13517952D01*
X12919286Y-13508428D01*
X12928809Y-13489381D01*
X12928809Y-13451286D01*
X12919286Y-13432238D01*
X12909762Y-13422714D01*
X12890714Y-13413190D01*
X13100238Y-13394143D02*
X13100238Y-13527476D01*
X13052619Y-13317952D02*
X13005000Y-13460809D01*
X13128809Y-13460809D01*
X13195476Y-13327476D02*
X13195476Y-13365571D01*
X13271667Y-13327476D02*
X13271667Y-13365571D01*
X13566905Y-13603667D02*
X13557381Y-13594143D01*
X13538333Y-13565571D01*
X13528809Y-13546524D01*
X13519286Y-13517952D01*
X13509762Y-13470333D01*
X13509762Y-13432238D01*
X13519286Y-13384619D01*
X13528809Y-13356048D01*
X13538333Y-13337000D01*
X13557381Y-13308428D01*
X13566905Y-13298905D01*
X13633571Y-13346524D02*
X13643095Y-13337000D01*
X13662143Y-13327476D01*
X13709762Y-13327476D01*
X13728809Y-13337000D01*
X13738333Y-13346524D01*
X13747857Y-13365571D01*
X13747857Y-13384619D01*
X13738333Y-13413190D01*
X13624048Y-13527476D01*
X13747857Y-13527476D01*
X13985952Y-13527476D02*
X13985952Y-13327476D01*
X14071667Y-13527476D02*
X14071667Y-13422714D01*
X14062143Y-13403667D01*
X14043095Y-13394143D01*
X14014524Y-13394143D01*
X13995476Y-13403667D01*
X13985952Y-13413190D01*
X14195476Y-13527476D02*
X14176428Y-13517952D01*
X14166905Y-13508428D01*
X14157381Y-13489381D01*
X14157381Y-13432238D01*
X14166905Y-13413190D01*
X14176428Y-13403667D01*
X14195476Y-13394143D01*
X14224048Y-13394143D01*
X14243095Y-13403667D01*
X14252619Y-13413190D01*
X14262143Y-13432238D01*
X14262143Y-13489381D01*
X14252619Y-13508428D01*
X14243095Y-13517952D01*
X14224048Y-13527476D01*
X14195476Y-13527476D01*
X14376428Y-13527476D02*
X14357381Y-13517952D01*
X14347857Y-13498905D01*
X14347857Y-13327476D01*
X14528809Y-13517952D02*
X14509762Y-13527476D01*
X14471667Y-13527476D01*
X14452619Y-13517952D01*
X14443095Y-13498905D01*
X14443095Y-13422714D01*
X14452619Y-13403667D01*
X14471667Y-13394143D01*
X14509762Y-13394143D01*
X14528809Y-13403667D01*
X14538333Y-13422714D01*
X14538333Y-13441762D01*
X14443095Y-13460809D01*
X14614524Y-13517952D02*
X14633571Y-13527476D01*
X14671667Y-13527476D01*
X14690714Y-13517952D01*
X14700238Y-13498905D01*
X14700238Y-13489381D01*
X14690714Y-13470333D01*
X14671667Y-13460809D01*
X14643095Y-13460809D01*
X14624048Y-13451286D01*
X14614524Y-13432238D01*
X14614524Y-13422714D01*
X14624048Y-13403667D01*
X14643095Y-13394143D01*
X14671667Y-13394143D01*
X14690714Y-13403667D01*
X14766905Y-13603667D02*
X14776428Y-13594143D01*
X14795476Y-13565571D01*
X14805000Y-13546524D01*
X14814524Y-13517952D01*
X14824048Y-13470333D01*
X14824048Y-13432238D01*
X14814524Y-13384619D01*
X14805000Y-13356048D01*
X14795476Y-13337000D01*
X14776428Y-13308428D01*
X14766905Y-13298905D01*
M02*
