G04 #@! TF.GenerationSoftware,KiCad,Pcbnew,(6.0.9-0)*
G04 #@! TF.CreationDate,2022-11-10T09:06:56+01:00*
G04 #@! TF.ProjectId,picocart64_v1_lite,7069636f-6361-4727-9436-345f76315f6c,rev?*
G04 #@! TF.SameCoordinates,Original*
G04 #@! TF.FileFunction,Legend,Bot*
G04 #@! TF.FilePolarity,Positive*
%FSLAX46Y46*%
G04 Gerber Fmt 4.6, Leading zero omitted, Abs format (unit mm)*
G04 Created by KiCad (PCBNEW (6.0.9-0)) date 2022-11-10 09:06:56*
%MOMM*%
%LPD*%
G01*
G04 APERTURE LIST*
G04 Aperture macros list*
%AMRoundRect*
0 Rectangle with rounded corners*
0 $1 Rounding radius*
0 $2 $3 $4 $5 $6 $7 $8 $9 X,Y pos of 4 corners*
0 Add a 4 corners polygon primitive as box body*
4,1,4,$2,$3,$4,$5,$6,$7,$8,$9,$2,$3,0*
0 Add four circle primitives for the rounded corners*
1,1,$1+$1,$2,$3*
1,1,$1+$1,$4,$5*
1,1,$1+$1,$6,$7*
1,1,$1+$1,$8,$9*
0 Add four rect primitives between the rounded corners*
20,1,$1+$1,$2,$3,$4,$5,0*
20,1,$1+$1,$4,$5,$6,$7,0*
20,1,$1+$1,$6,$7,$8,$9,0*
20,1,$1+$1,$8,$9,$2,$3,0*%
G04 Aperture macros list end*
%ADD10C,0.300000*%
%ADD11C,2.760000*%
%ADD12RoundRect,0.130000X0.850000X0.850000X-0.850000X0.850000X-0.850000X-0.850000X0.850000X-0.850000X0*%
%ADD13RoundRect,0.130000X0.850000X-0.850000X0.850000X0.850000X-0.850000X0.850000X-0.850000X-0.850000X0*%
%ADD14O,1.960000X1.960000*%
%ADD15RoundRect,0.555000X0.425000X-0.425000X0.425000X0.425000X-0.425000X0.425000X-0.425000X-0.425000X0*%
%ADD16O,2.060000X2.060000*%
%ADD17O,1.760000X1.760000*%
%ADD18RoundRect,0.130000X-0.850000X0.850000X-0.850000X-0.850000X0.850000X-0.850000X0.850000X0.850000X0*%
%ADD19C,1.060000*%
G04 APERTURE END LIST*
D10*
X170142857Y-109678571D02*
X170857142Y-109678571D01*
X170928571Y-110392857D01*
X170857142Y-110321428D01*
X170714285Y-110250000D01*
X170357142Y-110250000D01*
X170214285Y-110321428D01*
X170142857Y-110392857D01*
X170071428Y-110535714D01*
X170071428Y-110892857D01*
X170142857Y-111035714D01*
X170214285Y-111107142D01*
X170357142Y-111178571D01*
X170714285Y-111178571D01*
X170857142Y-111107142D01*
X170928571Y-111035714D01*
X158285714Y-111178571D02*
X159142857Y-111178571D01*
X158714285Y-111178571D02*
X158714285Y-109678571D01*
X158857142Y-109892857D01*
X159000000Y-110035714D01*
X159142857Y-110107142D01*
X157357142Y-109678571D02*
X157214285Y-109678571D01*
X157071428Y-109750000D01*
X157000000Y-109821428D01*
X156928571Y-109964285D01*
X156857142Y-110250000D01*
X156857142Y-110607142D01*
X156928571Y-110892857D01*
X157000000Y-111035714D01*
X157071428Y-111107142D01*
X157214285Y-111178571D01*
X157357142Y-111178571D01*
X157500000Y-111107142D01*
X157571428Y-111035714D01*
X157642857Y-110892857D01*
X157714285Y-110607142D01*
X157714285Y-110250000D01*
X157642857Y-109964285D01*
X157571428Y-109821428D01*
X157500000Y-109750000D01*
X157357142Y-109678571D01*
X145785714Y-111178571D02*
X146642857Y-111178571D01*
X146214285Y-111178571D02*
X146214285Y-109678571D01*
X146357142Y-109892857D01*
X146500000Y-110035714D01*
X146642857Y-110107142D01*
X144428571Y-109678571D02*
X145142857Y-109678571D01*
X145214285Y-110392857D01*
X145142857Y-110321428D01*
X145000000Y-110250000D01*
X144642857Y-110250000D01*
X144500000Y-110321428D01*
X144428571Y-110392857D01*
X144357142Y-110535714D01*
X144357142Y-110892857D01*
X144428571Y-111035714D01*
X144500000Y-111107142D01*
X144642857Y-111178571D01*
X145000000Y-111178571D01*
X145142857Y-111107142D01*
X145214285Y-111035714D01*
X134142857Y-109821428D02*
X134071428Y-109750000D01*
X133928571Y-109678571D01*
X133571428Y-109678571D01*
X133428571Y-109750000D01*
X133357142Y-109821428D01*
X133285714Y-109964285D01*
X133285714Y-110107142D01*
X133357142Y-110321428D01*
X134214285Y-111178571D01*
X133285714Y-111178571D01*
X132357142Y-109678571D02*
X132214285Y-109678571D01*
X132071428Y-109750000D01*
X132000000Y-109821428D01*
X131928571Y-109964285D01*
X131857142Y-110250000D01*
X131857142Y-110607142D01*
X131928571Y-110892857D01*
X132000000Y-111035714D01*
X132071428Y-111107142D01*
X132214285Y-111178571D01*
X132357142Y-111178571D01*
X132500000Y-111107142D01*
X132571428Y-111035714D01*
X132642857Y-110892857D01*
X132714285Y-110607142D01*
X132714285Y-110250000D01*
X132642857Y-109964285D01*
X132571428Y-109821428D01*
X132500000Y-109750000D01*
X132357142Y-109678571D01*
X121642857Y-109821428D02*
X121571428Y-109750000D01*
X121428571Y-109678571D01*
X121071428Y-109678571D01*
X120928571Y-109750000D01*
X120857142Y-109821428D01*
X120785714Y-109964285D01*
X120785714Y-110107142D01*
X120857142Y-110321428D01*
X121714285Y-111178571D01*
X120785714Y-111178571D01*
X119428571Y-109678571D02*
X120142857Y-109678571D01*
X120214285Y-110392857D01*
X120142857Y-110321428D01*
X120000000Y-110250000D01*
X119642857Y-110250000D01*
X119500000Y-110321428D01*
X119428571Y-110392857D01*
X119357142Y-110535714D01*
X119357142Y-110892857D01*
X119428571Y-111035714D01*
X119500000Y-111107142D01*
X119642857Y-111178571D01*
X120000000Y-111178571D01*
X120142857Y-111107142D01*
X120214285Y-111035714D01*
X179571428Y-111178571D02*
X180428571Y-111178571D01*
X180000000Y-111178571D02*
X180000000Y-109678571D01*
X180142857Y-109892857D01*
X180285714Y-110035714D01*
X180428571Y-110107142D01*
X190674285Y-107045142D02*
X191340952Y-107045142D01*
X191340952Y-108092761D02*
X191340952Y-106092761D01*
X190388571Y-106092761D01*
X189626666Y-108092761D02*
X189626666Y-106759428D01*
X189626666Y-107140380D02*
X189531428Y-106949904D01*
X189436190Y-106854666D01*
X189245714Y-106759428D01*
X189055238Y-106759428D01*
X188102857Y-108092761D02*
X188293333Y-107997523D01*
X188388571Y-107902285D01*
X188483809Y-107711809D01*
X188483809Y-107140380D01*
X188388571Y-106949904D01*
X188293333Y-106854666D01*
X188102857Y-106759428D01*
X187817142Y-106759428D01*
X187626666Y-106854666D01*
X187531428Y-106949904D01*
X187436190Y-107140380D01*
X187436190Y-107711809D01*
X187531428Y-107902285D01*
X187626666Y-107997523D01*
X187817142Y-108092761D01*
X188102857Y-108092761D01*
X186579047Y-106759428D02*
X186579047Y-108092761D01*
X186579047Y-106949904D02*
X186483809Y-106854666D01*
X186293333Y-106759428D01*
X186007619Y-106759428D01*
X185817142Y-106854666D01*
X185721904Y-107045142D01*
X185721904Y-108092761D01*
X185055238Y-106759428D02*
X184293333Y-106759428D01*
X184769523Y-106092761D02*
X184769523Y-107807047D01*
X184674285Y-107997523D01*
X184483809Y-108092761D01*
X184293333Y-108092761D01*
X179883809Y-107969761D02*
X179883809Y-105969761D01*
X179026666Y-107969761D02*
X179026666Y-106922142D01*
X179121904Y-106731666D01*
X179312380Y-106636428D01*
X179598095Y-106636428D01*
X179788571Y-106731666D01*
X179883809Y-106826904D01*
X178360000Y-106636428D02*
X177598095Y-106636428D01*
X178074285Y-105969761D02*
X178074285Y-107684047D01*
X177979047Y-107874523D01*
X177788571Y-107969761D01*
X177598095Y-107969761D01*
X177217142Y-106636428D02*
X176455238Y-106636428D01*
X176931428Y-105969761D02*
X176931428Y-107684047D01*
X176836190Y-107874523D01*
X176645714Y-107969761D01*
X176455238Y-107969761D01*
X175788571Y-106636428D02*
X175788571Y-108636428D01*
X175788571Y-106731666D02*
X175598095Y-106636428D01*
X175217142Y-106636428D01*
X175026666Y-106731666D01*
X174931428Y-106826904D01*
X174836190Y-107017380D01*
X174836190Y-107588809D01*
X174931428Y-107779285D01*
X175026666Y-107874523D01*
X175217142Y-107969761D01*
X175598095Y-107969761D01*
X175788571Y-107874523D01*
X174074285Y-107874523D02*
X173883809Y-107969761D01*
X173502857Y-107969761D01*
X173312380Y-107874523D01*
X173217142Y-107684047D01*
X173217142Y-107588809D01*
X173312380Y-107398333D01*
X173502857Y-107303095D01*
X173788571Y-107303095D01*
X173979047Y-107207857D01*
X174074285Y-107017380D01*
X174074285Y-106922142D01*
X173979047Y-106731666D01*
X173788571Y-106636428D01*
X173502857Y-106636428D01*
X173312380Y-106731666D01*
X172360000Y-107779285D02*
X172264761Y-107874523D01*
X172360000Y-107969761D01*
X172455238Y-107874523D01*
X172360000Y-107779285D01*
X172360000Y-107969761D01*
X172360000Y-106731666D02*
X172264761Y-106826904D01*
X172360000Y-106922142D01*
X172455238Y-106826904D01*
X172360000Y-106731666D01*
X172360000Y-106922142D01*
X169979047Y-105874523D02*
X171693333Y-108445952D01*
X167883809Y-105874523D02*
X169598095Y-108445952D01*
X166360000Y-106636428D02*
X166360000Y-108255476D01*
X166455238Y-108445952D01*
X166550476Y-108541190D01*
X166740952Y-108636428D01*
X167026666Y-108636428D01*
X167217142Y-108541190D01*
X166360000Y-107874523D02*
X166550476Y-107969761D01*
X166931428Y-107969761D01*
X167121904Y-107874523D01*
X167217142Y-107779285D01*
X167312380Y-107588809D01*
X167312380Y-107017380D01*
X167217142Y-106826904D01*
X167121904Y-106731666D01*
X166931428Y-106636428D01*
X166550476Y-106636428D01*
X166360000Y-106731666D01*
X165407619Y-107969761D02*
X165407619Y-106636428D01*
X165407619Y-105969761D02*
X165502857Y-106065000D01*
X165407619Y-106160238D01*
X165312380Y-106065000D01*
X165407619Y-105969761D01*
X165407619Y-106160238D01*
X164740952Y-106636428D02*
X163979047Y-106636428D01*
X164455238Y-105969761D02*
X164455238Y-107684047D01*
X164360000Y-107874523D01*
X164169523Y-107969761D01*
X163979047Y-107969761D01*
X163312380Y-107969761D02*
X163312380Y-105969761D01*
X162455238Y-107969761D02*
X162455238Y-106922142D01*
X162550476Y-106731666D01*
X162740952Y-106636428D01*
X163026666Y-106636428D01*
X163217142Y-106731666D01*
X163312380Y-106826904D01*
X160645714Y-106636428D02*
X160645714Y-107969761D01*
X161502857Y-106636428D02*
X161502857Y-107684047D01*
X161407619Y-107874523D01*
X161217142Y-107969761D01*
X160931428Y-107969761D01*
X160740952Y-107874523D01*
X160645714Y-107779285D01*
X159693333Y-107969761D02*
X159693333Y-105969761D01*
X159693333Y-106731666D02*
X159502857Y-106636428D01*
X159121904Y-106636428D01*
X158931428Y-106731666D01*
X158836190Y-106826904D01*
X158740952Y-107017380D01*
X158740952Y-107588809D01*
X158836190Y-107779285D01*
X158931428Y-107874523D01*
X159121904Y-107969761D01*
X159502857Y-107969761D01*
X159693333Y-107874523D01*
X157883809Y-107779285D02*
X157788571Y-107874523D01*
X157883809Y-107969761D01*
X157979047Y-107874523D01*
X157883809Y-107779285D01*
X157883809Y-107969761D01*
X156074285Y-107874523D02*
X156264761Y-107969761D01*
X156645714Y-107969761D01*
X156836190Y-107874523D01*
X156931428Y-107779285D01*
X157026666Y-107588809D01*
X157026666Y-107017380D01*
X156931428Y-106826904D01*
X156836190Y-106731666D01*
X156645714Y-106636428D01*
X156264761Y-106636428D01*
X156074285Y-106731666D01*
X154931428Y-107969761D02*
X155121904Y-107874523D01*
X155217142Y-107779285D01*
X155312380Y-107588809D01*
X155312380Y-107017380D01*
X155217142Y-106826904D01*
X155121904Y-106731666D01*
X154931428Y-106636428D01*
X154645714Y-106636428D01*
X154455238Y-106731666D01*
X154360000Y-106826904D01*
X154264761Y-107017380D01*
X154264761Y-107588809D01*
X154360000Y-107779285D01*
X154455238Y-107874523D01*
X154645714Y-107969761D01*
X154931428Y-107969761D01*
X153407619Y-107969761D02*
X153407619Y-106636428D01*
X153407619Y-106826904D02*
X153312380Y-106731666D01*
X153121904Y-106636428D01*
X152836190Y-106636428D01*
X152645714Y-106731666D01*
X152550476Y-106922142D01*
X152550476Y-107969761D01*
X152550476Y-106922142D02*
X152455238Y-106731666D01*
X152264761Y-106636428D01*
X151979047Y-106636428D01*
X151788571Y-106731666D01*
X151693333Y-106922142D01*
X151693333Y-107969761D01*
X149312380Y-105874523D02*
X151026666Y-108445952D01*
X148645714Y-107969761D02*
X148645714Y-105969761D01*
X148455238Y-107207857D02*
X147883809Y-107969761D01*
X147883809Y-106636428D02*
X148645714Y-107398333D01*
X147026666Y-107969761D02*
X147026666Y-105969761D01*
X147026666Y-106731666D02*
X146836190Y-106636428D01*
X146455238Y-106636428D01*
X146264761Y-106731666D01*
X146169523Y-106826904D01*
X146074285Y-107017380D01*
X146074285Y-107588809D01*
X146169523Y-107779285D01*
X146264761Y-107874523D01*
X146455238Y-107969761D01*
X146836190Y-107969761D01*
X147026666Y-107874523D01*
X144455238Y-107874523D02*
X144645714Y-107969761D01*
X145026666Y-107969761D01*
X145217142Y-107874523D01*
X145312380Y-107684047D01*
X145312380Y-106922142D01*
X145217142Y-106731666D01*
X145026666Y-106636428D01*
X144645714Y-106636428D01*
X144455238Y-106731666D01*
X144360000Y-106922142D01*
X144360000Y-107112619D01*
X145312380Y-107303095D01*
X142645714Y-107874523D02*
X142836190Y-107969761D01*
X143217142Y-107969761D01*
X143407619Y-107874523D01*
X143502857Y-107779285D01*
X143598095Y-107588809D01*
X143598095Y-107017380D01*
X143502857Y-106826904D01*
X143407619Y-106731666D01*
X143217142Y-106636428D01*
X142836190Y-106636428D01*
X142645714Y-106731666D01*
X141788571Y-107969761D02*
X141788571Y-105969761D01*
X141598095Y-107207857D02*
X141026666Y-107969761D01*
X141026666Y-106636428D02*
X141788571Y-107398333D01*
X140169523Y-107969761D02*
X140169523Y-106636428D01*
X140169523Y-106826904D02*
X140074285Y-106731666D01*
X139883809Y-106636428D01*
X139598095Y-106636428D01*
X139407619Y-106731666D01*
X139312380Y-106922142D01*
X139312380Y-107969761D01*
X139312380Y-106922142D02*
X139217142Y-106731666D01*
X139026666Y-106636428D01*
X138740952Y-106636428D01*
X138550476Y-106731666D01*
X138455238Y-106922142D01*
X138455238Y-107969761D01*
X136645714Y-107969761D02*
X136645714Y-106922142D01*
X136740952Y-106731666D01*
X136931428Y-106636428D01*
X137312380Y-106636428D01*
X137502857Y-106731666D01*
X136645714Y-107874523D02*
X136836190Y-107969761D01*
X137312380Y-107969761D01*
X137502857Y-107874523D01*
X137598095Y-107684047D01*
X137598095Y-107493571D01*
X137502857Y-107303095D01*
X137312380Y-107207857D01*
X136836190Y-107207857D01*
X136645714Y-107112619D01*
X135693333Y-106636428D02*
X135693333Y-107969761D01*
X135693333Y-106826904D02*
X135598095Y-106731666D01*
X135407619Y-106636428D01*
X135121904Y-106636428D01*
X134931428Y-106731666D01*
X134836190Y-106922142D01*
X134836190Y-107969761D01*
X133883809Y-106636428D02*
X133883809Y-107969761D01*
X133883809Y-106826904D02*
X133788571Y-106731666D01*
X133598095Y-106636428D01*
X133312380Y-106636428D01*
X133121904Y-106731666D01*
X133026666Y-106922142D01*
X133026666Y-107969761D01*
X130645714Y-105874523D02*
X132360000Y-108445952D01*
X129979047Y-107969761D02*
X129979047Y-105969761D01*
X129217142Y-105969761D01*
X129026666Y-106065000D01*
X128931428Y-106160238D01*
X128836190Y-106350714D01*
X128836190Y-106636428D01*
X128931428Y-106826904D01*
X129026666Y-106922142D01*
X129217142Y-107017380D01*
X129979047Y-107017380D01*
X127979047Y-107969761D02*
X127979047Y-106636428D01*
X127979047Y-105969761D02*
X128074285Y-106065000D01*
X127979047Y-106160238D01*
X127883809Y-106065000D01*
X127979047Y-105969761D01*
X127979047Y-106160238D01*
X126169523Y-107874523D02*
X126360000Y-107969761D01*
X126740952Y-107969761D01*
X126931428Y-107874523D01*
X127026666Y-107779285D01*
X127121904Y-107588809D01*
X127121904Y-107017380D01*
X127026666Y-106826904D01*
X126931428Y-106731666D01*
X126740952Y-106636428D01*
X126360000Y-106636428D01*
X126169523Y-106731666D01*
X125026666Y-107969761D02*
X125217142Y-107874523D01*
X125312380Y-107779285D01*
X125407619Y-107588809D01*
X125407619Y-107017380D01*
X125312380Y-106826904D01*
X125217142Y-106731666D01*
X125026666Y-106636428D01*
X124740952Y-106636428D01*
X124550476Y-106731666D01*
X124455238Y-106826904D01*
X124360000Y-107017380D01*
X124360000Y-107588809D01*
X124455238Y-107779285D01*
X124550476Y-107874523D01*
X124740952Y-107969761D01*
X125026666Y-107969761D01*
X122360000Y-107779285D02*
X122455238Y-107874523D01*
X122740952Y-107969761D01*
X122931428Y-107969761D01*
X123217142Y-107874523D01*
X123407619Y-107684047D01*
X123502857Y-107493571D01*
X123598095Y-107112619D01*
X123598095Y-106826904D01*
X123502857Y-106445952D01*
X123407619Y-106255476D01*
X123217142Y-106065000D01*
X122931428Y-105969761D01*
X122740952Y-105969761D01*
X122455238Y-106065000D01*
X122360000Y-106160238D01*
X120645714Y-107969761D02*
X120645714Y-106922142D01*
X120740952Y-106731666D01*
X120931428Y-106636428D01*
X121312380Y-106636428D01*
X121502857Y-106731666D01*
X120645714Y-107874523D02*
X120836190Y-107969761D01*
X121312380Y-107969761D01*
X121502857Y-107874523D01*
X121598095Y-107684047D01*
X121598095Y-107493571D01*
X121502857Y-107303095D01*
X121312380Y-107207857D01*
X120836190Y-107207857D01*
X120645714Y-107112619D01*
X119693333Y-107969761D02*
X119693333Y-106636428D01*
X119693333Y-107017380D02*
X119598095Y-106826904D01*
X119502857Y-106731666D01*
X119312380Y-106636428D01*
X119121904Y-106636428D01*
X118740952Y-106636428D02*
X117979047Y-106636428D01*
X118455238Y-105969761D02*
X118455238Y-107684047D01*
X118360000Y-107874523D01*
X118169523Y-107969761D01*
X117979047Y-107969761D01*
X116455238Y-105969761D02*
X116836190Y-105969761D01*
X117026666Y-106065000D01*
X117121904Y-106160238D01*
X117312380Y-106445952D01*
X117407619Y-106826904D01*
X117407619Y-107588809D01*
X117312380Y-107779285D01*
X117217142Y-107874523D01*
X117026666Y-107969761D01*
X116645714Y-107969761D01*
X116455238Y-107874523D01*
X116360000Y-107779285D01*
X116264761Y-107588809D01*
X116264761Y-107112619D01*
X116360000Y-106922142D01*
X116455238Y-106826904D01*
X116645714Y-106731666D01*
X117026666Y-106731666D01*
X117217142Y-106826904D01*
X117312380Y-106922142D01*
X117407619Y-107112619D01*
X114550476Y-106636428D02*
X114550476Y-107969761D01*
X115026666Y-105874523D02*
X115502857Y-107303095D01*
X114264761Y-107303095D01*
X194584047Y-91555238D02*
X194488809Y-91460000D01*
X194298333Y-91364761D01*
X193822142Y-91364761D01*
X193631666Y-91460000D01*
X193536428Y-91555238D01*
X193441190Y-91745714D01*
X193441190Y-91936190D01*
X193536428Y-92221904D01*
X194679285Y-93364761D01*
X193441190Y-93364761D01*
X192203095Y-91364761D02*
X192012619Y-91364761D01*
X191822142Y-91460000D01*
X191726904Y-91555238D01*
X191631666Y-91745714D01*
X191536428Y-92126666D01*
X191536428Y-92602857D01*
X191631666Y-92983809D01*
X191726904Y-93174285D01*
X191822142Y-93269523D01*
X192012619Y-93364761D01*
X192203095Y-93364761D01*
X192393571Y-93269523D01*
X192488809Y-93174285D01*
X192584047Y-92983809D01*
X192679285Y-92602857D01*
X192679285Y-92126666D01*
X192584047Y-91745714D01*
X192488809Y-91555238D01*
X192393571Y-91460000D01*
X192203095Y-91364761D01*
X190774523Y-91555238D02*
X190679285Y-91460000D01*
X190488809Y-91364761D01*
X190012619Y-91364761D01*
X189822142Y-91460000D01*
X189726904Y-91555238D01*
X189631666Y-91745714D01*
X189631666Y-91936190D01*
X189726904Y-92221904D01*
X190869761Y-93364761D01*
X189631666Y-93364761D01*
X188869761Y-91555238D02*
X188774523Y-91460000D01*
X188584047Y-91364761D01*
X188107857Y-91364761D01*
X187917380Y-91460000D01*
X187822142Y-91555238D01*
X187726904Y-91745714D01*
X187726904Y-91936190D01*
X187822142Y-92221904D01*
X188965000Y-93364761D01*
X187726904Y-93364761D01*
X186869761Y-92602857D02*
X185345952Y-92602857D01*
X184012619Y-91364761D02*
X183822142Y-91364761D01*
X183631666Y-91460000D01*
X183536428Y-91555238D01*
X183441190Y-91745714D01*
X183345952Y-92126666D01*
X183345952Y-92602857D01*
X183441190Y-92983809D01*
X183536428Y-93174285D01*
X183631666Y-93269523D01*
X183822142Y-93364761D01*
X184012619Y-93364761D01*
X184203095Y-93269523D01*
X184298333Y-93174285D01*
X184393571Y-92983809D01*
X184488809Y-92602857D01*
X184488809Y-92126666D01*
X184393571Y-91745714D01*
X184298333Y-91555238D01*
X184203095Y-91460000D01*
X184012619Y-91364761D01*
X182203095Y-92221904D02*
X182393571Y-92126666D01*
X182488809Y-92031428D01*
X182584047Y-91840952D01*
X182584047Y-91745714D01*
X182488809Y-91555238D01*
X182393571Y-91460000D01*
X182203095Y-91364761D01*
X181822142Y-91364761D01*
X181631666Y-91460000D01*
X181536428Y-91555238D01*
X181441190Y-91745714D01*
X181441190Y-91840952D01*
X181536428Y-92031428D01*
X181631666Y-92126666D01*
X181822142Y-92221904D01*
X182203095Y-92221904D01*
X182393571Y-92317142D01*
X182488809Y-92412380D01*
X182584047Y-92602857D01*
X182584047Y-92983809D01*
X182488809Y-93174285D01*
X182393571Y-93269523D01*
X182203095Y-93364761D01*
X181822142Y-93364761D01*
X181631666Y-93269523D01*
X181536428Y-93174285D01*
X181441190Y-92983809D01*
X181441190Y-92602857D01*
X181536428Y-92412380D01*
X181631666Y-92317142D01*
X181822142Y-92221904D01*
X180584047Y-92602857D02*
X179060238Y-92602857D01*
X177060238Y-93364761D02*
X178203095Y-93364761D01*
X177631666Y-93364761D02*
X177631666Y-91364761D01*
X177822142Y-91650476D01*
X178012619Y-91840952D01*
X178203095Y-91936190D01*
X175345952Y-92031428D02*
X175345952Y-93364761D01*
X175822142Y-91269523D02*
X176298333Y-92698095D01*
X175060238Y-92698095D01*
X194543732Y-97174761D02*
X194543732Y-95174761D01*
X193781827Y-95174761D01*
X193591351Y-95270000D01*
X193496113Y-95365238D01*
X193400875Y-95555714D01*
X193400875Y-95841428D01*
X193496113Y-96031904D01*
X193591351Y-96127142D01*
X193781827Y-96222380D01*
X194543732Y-96222380D01*
X192543732Y-97174761D02*
X192543732Y-95841428D01*
X192543732Y-95174761D02*
X192638970Y-95270000D01*
X192543732Y-95365238D01*
X192448494Y-95270000D01*
X192543732Y-95174761D01*
X192543732Y-95365238D01*
X190734208Y-97079523D02*
X190924684Y-97174761D01*
X191305637Y-97174761D01*
X191496113Y-97079523D01*
X191591351Y-96984285D01*
X191686589Y-96793809D01*
X191686589Y-96222380D01*
X191591351Y-96031904D01*
X191496113Y-95936666D01*
X191305637Y-95841428D01*
X190924684Y-95841428D01*
X190734208Y-95936666D01*
X189591351Y-97174761D02*
X189781827Y-97079523D01*
X189877065Y-96984285D01*
X189972303Y-96793809D01*
X189972303Y-96222380D01*
X189877065Y-96031904D01*
X189781827Y-95936666D01*
X189591351Y-95841428D01*
X189305637Y-95841428D01*
X189115161Y-95936666D01*
X189019923Y-96031904D01*
X188924684Y-96222380D01*
X188924684Y-96793809D01*
X189019923Y-96984285D01*
X189115161Y-97079523D01*
X189305637Y-97174761D01*
X189591351Y-97174761D01*
X186924684Y-96984285D02*
X187019923Y-97079523D01*
X187305637Y-97174761D01*
X187496113Y-97174761D01*
X187781827Y-97079523D01*
X187972303Y-96889047D01*
X188067542Y-96698571D01*
X188162780Y-96317619D01*
X188162780Y-96031904D01*
X188067542Y-95650952D01*
X187972303Y-95460476D01*
X187781827Y-95270000D01*
X187496113Y-95174761D01*
X187305637Y-95174761D01*
X187019923Y-95270000D01*
X186924684Y-95365238D01*
X185210399Y-97174761D02*
X185210399Y-96127142D01*
X185305637Y-95936666D01*
X185496113Y-95841428D01*
X185877065Y-95841428D01*
X186067542Y-95936666D01*
X185210399Y-97079523D02*
X185400875Y-97174761D01*
X185877065Y-97174761D01*
X186067542Y-97079523D01*
X186162780Y-96889047D01*
X186162780Y-96698571D01*
X186067542Y-96508095D01*
X185877065Y-96412857D01*
X185400875Y-96412857D01*
X185210399Y-96317619D01*
X184258018Y-97174761D02*
X184258018Y-95841428D01*
X184258018Y-96222380D02*
X184162780Y-96031904D01*
X184067542Y-95936666D01*
X183877065Y-95841428D01*
X183686589Y-95841428D01*
X183305637Y-95841428D02*
X182543732Y-95841428D01*
X183019923Y-95174761D02*
X183019923Y-96889047D01*
X182924684Y-97079523D01*
X182734208Y-97174761D01*
X182543732Y-97174761D01*
X181019923Y-95174761D02*
X181400875Y-95174761D01*
X181591351Y-95270000D01*
X181686589Y-95365238D01*
X181877065Y-95650952D01*
X181972303Y-96031904D01*
X181972303Y-96793809D01*
X181877065Y-96984285D01*
X181781827Y-97079523D01*
X181591351Y-97174761D01*
X181210399Y-97174761D01*
X181019923Y-97079523D01*
X180924684Y-96984285D01*
X180829446Y-96793809D01*
X180829446Y-96317619D01*
X180924684Y-96127142D01*
X181019923Y-96031904D01*
X181210399Y-95936666D01*
X181591351Y-95936666D01*
X181781827Y-96031904D01*
X181877065Y-96127142D01*
X181972303Y-96317619D01*
X179115161Y-95841428D02*
X179115161Y-97174761D01*
X179591351Y-95079523D02*
X180067542Y-96508095D01*
X178829446Y-96508095D01*
X178067542Y-96412857D02*
X176543732Y-96412857D01*
X175305637Y-97174761D02*
X175496113Y-97079523D01*
X175591351Y-96889047D01*
X175591351Y-95174761D01*
X174543732Y-97174761D02*
X174543732Y-95841428D01*
X174543732Y-95174761D02*
X174638970Y-95270000D01*
X174543732Y-95365238D01*
X174448494Y-95270000D01*
X174543732Y-95174761D01*
X174543732Y-95365238D01*
X173877065Y-95841428D02*
X173115161Y-95841428D01*
X173591351Y-95174761D02*
X173591351Y-96889047D01*
X173496113Y-97079523D01*
X173305637Y-97174761D01*
X173115161Y-97174761D01*
X171686589Y-97079523D02*
X171877065Y-97174761D01*
X172258018Y-97174761D01*
X172448494Y-97079523D01*
X172543732Y-96889047D01*
X172543732Y-96127142D01*
X172448494Y-95936666D01*
X172258018Y-95841428D01*
X171877065Y-95841428D01*
X171686589Y-95936666D01*
X171591351Y-96127142D01*
X171591351Y-96317619D01*
X172543732Y-96508095D01*
X169400875Y-95841428D02*
X168924684Y-97174761D01*
X168448494Y-95841428D01*
X166638970Y-97174761D02*
X167781827Y-97174761D01*
X167210399Y-97174761D02*
X167210399Y-95174761D01*
X167400875Y-95460476D01*
X167591351Y-95650952D01*
X167781827Y-95746190D01*
X165781827Y-96984285D02*
X165686589Y-97079523D01*
X165781827Y-97174761D01*
X165877065Y-97079523D01*
X165781827Y-96984285D01*
X165781827Y-97174761D01*
X165019923Y-95174761D02*
X163781827Y-95174761D01*
X164448494Y-95936666D01*
X164162780Y-95936666D01*
X163972303Y-96031904D01*
X163877065Y-96127142D01*
X163781827Y-96317619D01*
X163781827Y-96793809D01*
X163877065Y-96984285D01*
X163972303Y-97079523D01*
X164162780Y-97174761D01*
X164734208Y-97174761D01*
X164924684Y-97079523D01*
X165019923Y-96984285D01*
X179847092Y-104274761D02*
X179847092Y-102274761D01*
X178989949Y-104274761D02*
X178989949Y-103227142D01*
X179085187Y-103036666D01*
X179275663Y-102941428D01*
X179561378Y-102941428D01*
X179751854Y-103036666D01*
X179847092Y-103131904D01*
X178323283Y-102941428D02*
X177561378Y-102941428D01*
X178037568Y-102274761D02*
X178037568Y-103989047D01*
X177942330Y-104179523D01*
X177751854Y-104274761D01*
X177561378Y-104274761D01*
X177180425Y-102941428D02*
X176418521Y-102941428D01*
X176894711Y-102274761D02*
X176894711Y-103989047D01*
X176799473Y-104179523D01*
X176608997Y-104274761D01*
X176418521Y-104274761D01*
X175751854Y-102941428D02*
X175751854Y-104941428D01*
X175751854Y-103036666D02*
X175561378Y-102941428D01*
X175180425Y-102941428D01*
X174989949Y-103036666D01*
X174894711Y-103131904D01*
X174799473Y-103322380D01*
X174799473Y-103893809D01*
X174894711Y-104084285D01*
X174989949Y-104179523D01*
X175180425Y-104274761D01*
X175561378Y-104274761D01*
X175751854Y-104179523D01*
X173942330Y-104084285D02*
X173847092Y-104179523D01*
X173942330Y-104274761D01*
X174037568Y-104179523D01*
X173942330Y-104084285D01*
X173942330Y-104274761D01*
X173942330Y-103036666D02*
X173847092Y-103131904D01*
X173942330Y-103227142D01*
X174037568Y-103131904D01*
X173942330Y-103036666D01*
X173942330Y-103227142D01*
X171561378Y-102179523D02*
X173275663Y-104750952D01*
X169466140Y-102179523D02*
X171180425Y-104750952D01*
X168799473Y-102941428D02*
X168799473Y-104941428D01*
X168799473Y-103036666D02*
X168608997Y-102941428D01*
X168228044Y-102941428D01*
X168037568Y-103036666D01*
X167942330Y-103131904D01*
X167847092Y-103322380D01*
X167847092Y-103893809D01*
X167942330Y-104084285D01*
X168037568Y-104179523D01*
X168228044Y-104274761D01*
X168608997Y-104274761D01*
X168799473Y-104179523D01*
X166989949Y-104274761D02*
X166989949Y-102941428D01*
X166989949Y-102274761D02*
X167085187Y-102370000D01*
X166989949Y-102465238D01*
X166894711Y-102370000D01*
X166989949Y-102274761D01*
X166989949Y-102465238D01*
X165180425Y-104179523D02*
X165370902Y-104274761D01*
X165751854Y-104274761D01*
X165942330Y-104179523D01*
X166037568Y-104084285D01*
X166132806Y-103893809D01*
X166132806Y-103322380D01*
X166037568Y-103131904D01*
X165942330Y-103036666D01*
X165751854Y-102941428D01*
X165370902Y-102941428D01*
X165180425Y-103036666D01*
X164037568Y-104274761D02*
X164228044Y-104179523D01*
X164323283Y-104084285D01*
X164418521Y-103893809D01*
X164418521Y-103322380D01*
X164323283Y-103131904D01*
X164228044Y-103036666D01*
X164037568Y-102941428D01*
X163751854Y-102941428D01*
X163561378Y-103036666D01*
X163466140Y-103131904D01*
X163370902Y-103322380D01*
X163370902Y-103893809D01*
X163466140Y-104084285D01*
X163561378Y-104179523D01*
X163751854Y-104274761D01*
X164037568Y-104274761D01*
X161656616Y-104179523D02*
X161847092Y-104274761D01*
X162228044Y-104274761D01*
X162418521Y-104179523D01*
X162513759Y-104084285D01*
X162608997Y-103893809D01*
X162608997Y-103322380D01*
X162513759Y-103131904D01*
X162418521Y-103036666D01*
X162228044Y-102941428D01*
X161847092Y-102941428D01*
X161656616Y-103036666D01*
X160799473Y-104084285D02*
X160704235Y-104179523D01*
X160799473Y-104274761D01*
X160894711Y-104179523D01*
X160799473Y-104084285D01*
X160799473Y-104274761D01*
X158989949Y-104274761D02*
X158989949Y-103227142D01*
X159085187Y-103036666D01*
X159275663Y-102941428D01*
X159656616Y-102941428D01*
X159847092Y-103036666D01*
X158989949Y-104179523D02*
X159180425Y-104274761D01*
X159656616Y-104274761D01*
X159847092Y-104179523D01*
X159942330Y-103989047D01*
X159942330Y-103798571D01*
X159847092Y-103608095D01*
X159656616Y-103512857D01*
X159180425Y-103512857D01*
X158989949Y-103417619D01*
X158037568Y-104274761D02*
X158037568Y-102941428D01*
X158037568Y-103322380D02*
X157942330Y-103131904D01*
X157847092Y-103036666D01*
X157656616Y-102941428D01*
X157466140Y-102941428D01*
X157085187Y-102941428D02*
X156323283Y-102941428D01*
X156799473Y-102274761D02*
X156799473Y-103989047D01*
X156704235Y-104179523D01*
X156513759Y-104274761D01*
X156323283Y-104274761D01*
X154228044Y-102179523D02*
X155942330Y-104750952D01*
%LPC*%
D11*
X102850000Y-112600000D03*
X197650000Y-112600000D03*
D12*
X197939990Y-65199997D03*
X186300000Y-71550000D03*
D13*
X110705000Y-95000000D03*
D14*
X113245000Y-95000000D03*
X115785000Y-95000000D03*
X118325000Y-95000000D03*
X115785000Y-74680000D03*
X110705000Y-79760000D03*
X108165000Y-89920000D03*
X115785000Y-72140000D03*
X108165000Y-82300000D03*
X110705000Y-84840000D03*
X115785000Y-84840000D03*
X123405000Y-77220000D03*
X118325000Y-72140000D03*
X108165000Y-72140000D03*
X120865000Y-77220000D03*
X108165000Y-84840000D03*
X110705000Y-72140000D03*
X123405000Y-82300000D03*
X113245000Y-74680000D03*
X108165000Y-77220000D03*
X115785000Y-79760000D03*
X118325000Y-77220000D03*
X115785000Y-82300000D03*
X120865000Y-89920000D03*
X120865000Y-87380000D03*
X120865000Y-84840000D03*
X113245000Y-77220000D03*
X115785000Y-87380000D03*
X110705000Y-82300000D03*
X108165000Y-87380000D03*
X118325000Y-79760000D03*
X110705000Y-74680000D03*
X108165000Y-79760000D03*
X123405000Y-79760000D03*
X113245000Y-87380000D03*
X115785000Y-89920000D03*
X110705000Y-77220000D03*
X123405000Y-72140000D03*
X120865000Y-72140000D03*
X113245000Y-79760000D03*
X113245000Y-72140000D03*
X123405000Y-87380000D03*
X115785000Y-77220000D03*
X123405000Y-84840000D03*
X113245000Y-84840000D03*
X113245000Y-82300000D03*
X118325000Y-89920000D03*
X118325000Y-87380000D03*
X118325000Y-82300000D03*
X108165000Y-74680000D03*
X110705000Y-89920000D03*
X110705000Y-87380000D03*
X113245000Y-89920000D03*
X120865000Y-79760000D03*
X123405000Y-74680000D03*
X120865000Y-82300000D03*
X120865000Y-74680000D03*
X123405000Y-89920000D03*
X118325000Y-84840000D03*
X118325000Y-74680000D03*
D15*
X105625000Y-79760000D03*
X105625000Y-72140000D03*
X105625000Y-87380000D03*
X105625000Y-89920000D03*
X105625000Y-84840000D03*
X105625000Y-82300000D03*
X105625000Y-74680000D03*
X105625000Y-77220000D03*
D13*
X125945000Y-87380000D03*
X125945000Y-74680000D03*
X125945000Y-72140000D03*
X125945000Y-89920000D03*
X125945000Y-84840000D03*
X125945000Y-82300000D03*
X125945000Y-77220000D03*
X125945000Y-79760000D03*
D16*
X195288600Y-76800000D03*
D17*
X192258600Y-76500000D03*
D16*
X195288600Y-71350000D03*
D17*
X192258600Y-71650000D03*
D14*
X195418600Y-65185000D03*
X192878600Y-65185000D03*
D18*
X190338600Y-65185000D03*
D14*
X187798600Y-65185000D03*
X185258600Y-65185000D03*
X182718600Y-65185000D03*
X180178600Y-65185000D03*
D18*
X177638600Y-65185000D03*
D14*
X175098600Y-65185000D03*
X172558600Y-65185000D03*
X170018600Y-65185000D03*
X167478600Y-65185000D03*
D18*
X164938600Y-65185000D03*
D14*
X162398600Y-65185000D03*
X159858600Y-65185000D03*
X157318600Y-65185000D03*
X154778600Y-65185000D03*
D18*
X152238600Y-65185000D03*
D14*
X149698600Y-65185000D03*
X147158600Y-65185000D03*
X147158600Y-82965000D03*
X149698600Y-82965000D03*
D18*
X152238600Y-82965000D03*
D14*
X154778600Y-82965000D03*
X157318600Y-82965000D03*
X159858600Y-82965000D03*
X162398600Y-82965000D03*
D18*
X164938600Y-82965000D03*
D14*
X167478600Y-82965000D03*
X170018600Y-82965000D03*
X172558600Y-82965000D03*
X175098600Y-82965000D03*
D18*
X177638600Y-82965000D03*
D14*
X180178600Y-82965000D03*
X182718600Y-82965000D03*
X185258600Y-82965000D03*
X187798600Y-82965000D03*
D18*
X190338600Y-82965000D03*
D14*
X192878600Y-82965000D03*
X195418600Y-82965000D03*
X147388600Y-71535000D03*
D18*
X147388600Y-74075000D03*
D14*
X147388600Y-76615000D03*
D13*
X108165000Y-67060000D03*
D14*
X110705000Y-67060000D03*
X113245000Y-67060000D03*
X115785000Y-67060000D03*
X118325000Y-67060000D03*
X120865000Y-67060000D03*
X123405000Y-67060000D03*
D19*
X180250000Y-111350000D03*
X180250000Y-108800000D03*
X177750000Y-111350000D03*
X177750000Y-108750000D03*
X167750000Y-108800000D03*
X167750000Y-110050000D03*
X127750000Y-111350000D03*
X127750000Y-108250000D03*
X125250000Y-108150000D03*
X125250000Y-111350000D03*
X120250000Y-111350000D03*
X120250000Y-108200000D03*
X130810000Y-63336550D03*
X140875000Y-91150000D03*
X140905318Y-73660000D03*
X181610000Y-68538966D03*
X115589704Y-102837791D03*
X190500000Y-87630000D03*
X105410000Y-63500000D03*
X101425000Y-92053295D03*
X177380000Y-80364914D03*
X192620000Y-80364914D03*
X110490000Y-107937495D03*
X115570000Y-107917791D03*
X197953903Y-92060000D03*
X157275000Y-78710000D03*
X168075000Y-100110000D03*
X180047000Y-92460000D03*
X189175000Y-108563500D03*
X181375000Y-96410000D03*
X137275000Y-79010000D03*
X138825000Y-107010000D03*
X105429704Y-102870000D03*
X148475000Y-89210000D03*
X164825000Y-78010000D03*
X129150000Y-100650000D03*
X125730000Y-102814488D03*
X183075000Y-80308167D03*
X152075000Y-78610000D03*
X102356903Y-77960000D03*
X110545560Y-98779704D03*
X102322855Y-75960000D03*
X179275000Y-98910000D03*
X115570000Y-63459124D03*
X162975000Y-88210000D03*
X101384142Y-89553295D03*
X176375000Y-68410000D03*
X197872187Y-87060000D03*
X132600000Y-88300000D03*
X101596097Y-107053295D03*
X173925000Y-97460000D03*
X179075000Y-78410000D03*
X167775000Y-91006500D03*
X102288806Y-73960000D03*
X187958792Y-80395000D03*
X120650000Y-63418266D03*
X172975000Y-80710000D03*
X164075000Y-108210000D03*
X162775000Y-80110000D03*
X197831329Y-84560000D03*
X115625560Y-98760000D03*
X149775000Y-98110000D03*
X147475000Y-103710000D03*
X171295000Y-68432806D03*
X195160000Y-80336540D03*
X176175000Y-75010000D03*
X195075000Y-67260000D03*
X102390951Y-79960000D03*
X185575000Y-94510000D03*
X159875000Y-78610000D03*
X139875000Y-87910000D03*
X173835000Y-68421403D03*
X149776384Y-74510000D03*
X149748011Y-72510000D03*
X190080000Y-80393288D03*
X195875000Y-97910000D03*
X163679048Y-68410000D03*
X120669704Y-102818088D03*
X168755000Y-68432805D03*
X137375000Y-83310000D03*
X139975000Y-104010000D03*
X144475000Y-91150000D03*
X197885000Y-89180000D03*
X169125000Y-88015000D03*
X198076477Y-99560000D03*
X129200000Y-82350000D03*
X120705560Y-97738088D03*
X135890000Y-63295692D03*
X183825000Y-76010000D03*
X197994761Y-94560000D03*
X159975000Y-88610000D03*
X152075000Y-71510000D03*
X195875000Y-102870000D03*
X101465858Y-94553295D03*
X181164600Y-89208800D03*
X182880000Y-87587963D03*
X191325000Y-69760000D03*
X169531400Y-106480800D03*
X101588432Y-102053295D03*
X198124999Y-104560000D03*
X154775000Y-78610000D03*
X192175000Y-108563500D03*
X198125000Y-107060000D03*
X102425000Y-85960000D03*
X152075000Y-88910000D03*
X102425000Y-81960000D03*
X149575000Y-78610000D03*
X101547574Y-99553295D03*
X170180000Y-80400496D03*
X140946176Y-68580000D03*
X186575000Y-74260000D03*
X150075000Y-106110000D03*
X166300000Y-106050000D03*
X142075000Y-84710000D03*
X140727800Y-98251200D03*
X125730000Y-63377408D03*
X105410000Y-107950000D03*
X186075000Y-108563500D03*
X132600000Y-82200000D03*
X173975000Y-88010000D03*
X187960000Y-97759352D03*
X105465560Y-97790000D03*
X110509704Y-102857495D03*
X160775000Y-68410000D03*
X101506716Y-97053295D03*
X198035619Y-97060000D03*
X151675000Y-75810000D03*
X167640000Y-80424141D03*
X162975000Y-91150000D03*
X166179048Y-68410000D03*
X139775000Y-81410000D03*
X101596096Y-104553295D03*
X198117335Y-102060000D03*
X155575000Y-68810000D03*
X149804758Y-76510000D03*
X129200000Y-91006500D03*
X125765856Y-97734488D03*
X110490000Y-63499982D03*
X140970000Y-63254834D03*
X174225000Y-102210000D03*
X130950000Y-104850000D03*
X136575000Y-111310000D03*
X142675000Y-81510000D03*
X160241000Y-110259000D03*
X140241000Y-110259000D03*
X140241000Y-111259000D03*
X160241000Y-111252000D03*
X144775000Y-80110000D03*
X133975000Y-110510000D03*
X194175000Y-106210000D03*
X191575000Y-104910000D03*
X189075000Y-102910000D03*
X186675000Y-104260000D03*
X165275000Y-99360000D03*
X166425000Y-96610000D03*
X146075000Y-101810000D03*
X147575000Y-98210000D03*
X142750000Y-110700000D03*
X164825000Y-95210000D03*
X145250000Y-110510000D03*
X161175000Y-97660000D03*
X151275000Y-111110000D03*
X154200000Y-111200000D03*
X158625000Y-100660000D03*
X181400000Y-77855000D03*
X178875000Y-88810000D03*
X176375000Y-92410000D03*
X161775000Y-110810000D03*
X148475000Y-106510000D03*
X149775000Y-110010000D03*
X157050000Y-110750000D03*
X157750000Y-109700000D03*
X157325000Y-104510000D03*
X132750000Y-90350000D03*
G36*
X103442121Y-88520002D02*
G01*
X103488614Y-88573658D01*
X103500000Y-88626000D01*
X103500000Y-109481885D01*
X103504475Y-109497124D01*
X103505865Y-109498329D01*
X103513548Y-109500000D01*
X103520838Y-109500000D01*
X103588959Y-109520002D01*
X103635452Y-109573658D01*
X103645556Y-109643932D01*
X103616062Y-109708512D01*
X103556336Y-109746896D01*
X103539329Y-109750636D01*
X103531018Y-109751869D01*
X103518709Y-109753081D01*
X103503094Y-109753848D01*
X103496912Y-109754000D01*
X100126000Y-109754000D01*
X100057879Y-109733998D01*
X100011386Y-109680342D01*
X100000000Y-109628000D01*
X100000000Y-88626000D01*
X100020002Y-88557879D01*
X100073658Y-88511386D01*
X100126000Y-88500000D01*
X103374000Y-88500000D01*
X103442121Y-88520002D01*
G37*
G36*
X199942121Y-90020002D02*
G01*
X199988614Y-90073658D01*
X200000000Y-90126000D01*
X200000000Y-109628000D01*
X199979998Y-109696121D01*
X199926342Y-109742614D01*
X199874000Y-109754000D01*
X196503088Y-109754000D01*
X196496906Y-109753848D01*
X196481291Y-109753081D01*
X196468982Y-109751869D01*
X196460671Y-109750636D01*
X196396223Y-109720854D01*
X196358108Y-109660956D01*
X196358426Y-109589960D01*
X196397077Y-109530407D01*
X196461790Y-109501203D01*
X196479162Y-109500000D01*
X196481885Y-109500000D01*
X196497124Y-109495525D01*
X196498329Y-109494135D01*
X196500000Y-109486452D01*
X196500000Y-90126000D01*
X196520002Y-90057879D01*
X196573658Y-90011386D01*
X196626000Y-90000000D01*
X199874000Y-90000000D01*
X199942121Y-90020002D01*
G37*
G36*
X182442121Y-113020002D02*
G01*
X182488614Y-113073658D01*
X182500000Y-113126000D01*
X182500000Y-118947810D01*
X182479998Y-119015931D01*
X182463095Y-119036905D01*
X181536905Y-119963095D01*
X181474593Y-119997121D01*
X181447810Y-120000000D01*
X119052190Y-120000000D01*
X118984069Y-119979998D01*
X118963095Y-119963095D01*
X118036905Y-119036905D01*
X118002879Y-118974593D01*
X118000000Y-118947810D01*
X118000000Y-113126000D01*
X118020002Y-113057879D01*
X118073658Y-113011386D01*
X118126000Y-113000000D01*
X182374000Y-113000000D01*
X182442121Y-113020002D01*
G37*
G36*
X199942121Y-109266002D02*
G01*
X199988614Y-109319658D01*
X200000000Y-109372000D01*
X200000000Y-115491742D01*
X199998922Y-115508188D01*
X199985128Y-115612963D01*
X199976615Y-115644735D01*
X199939361Y-115734674D01*
X199922914Y-115763160D01*
X199863651Y-115840393D01*
X199840393Y-115863651D01*
X199763160Y-115922914D01*
X199734674Y-115939361D01*
X199644735Y-115976615D01*
X199612963Y-115985128D01*
X199508188Y-115998922D01*
X199491742Y-116000000D01*
X194508258Y-116000000D01*
X194491812Y-115998922D01*
X194387037Y-115985128D01*
X194355265Y-115976615D01*
X194265326Y-115939361D01*
X194236840Y-115922914D01*
X194159607Y-115863651D01*
X194136349Y-115840393D01*
X194077086Y-115763160D01*
X194060639Y-115734674D01*
X194023385Y-115644735D01*
X194014872Y-115612963D01*
X194001078Y-115508188D01*
X194000000Y-115491742D01*
X194000000Y-109626000D01*
X194020002Y-109557879D01*
X194073658Y-109511386D01*
X194126000Y-109500000D01*
X196481885Y-109500000D01*
X196497124Y-109495525D01*
X196498329Y-109494135D01*
X196500000Y-109486452D01*
X196500000Y-109372000D01*
X196520002Y-109303879D01*
X196573658Y-109257386D01*
X196626000Y-109246000D01*
X199874000Y-109246000D01*
X199942121Y-109266002D01*
G37*
G36*
X103442121Y-109266002D02*
G01*
X103488614Y-109319658D01*
X103500000Y-109372000D01*
X103500000Y-109481885D01*
X103504475Y-109497124D01*
X103505865Y-109498329D01*
X103513548Y-109500000D01*
X106374000Y-109500000D01*
X106442121Y-109520002D01*
X106488614Y-109573658D01*
X106500000Y-109626000D01*
X106500000Y-115491742D01*
X106498922Y-115508188D01*
X106485128Y-115612963D01*
X106476615Y-115644735D01*
X106439361Y-115734674D01*
X106422914Y-115763160D01*
X106363651Y-115840393D01*
X106340393Y-115863651D01*
X106263160Y-115922914D01*
X106234674Y-115939361D01*
X106144735Y-115976615D01*
X106112963Y-115985128D01*
X106008188Y-115998922D01*
X105991742Y-116000000D01*
X100508258Y-116000000D01*
X100491812Y-115998922D01*
X100387037Y-115985128D01*
X100355265Y-115976615D01*
X100265326Y-115939361D01*
X100236840Y-115922914D01*
X100159607Y-115863651D01*
X100136349Y-115840393D01*
X100077086Y-115763160D01*
X100060639Y-115734674D01*
X100023385Y-115644735D01*
X100014872Y-115612963D01*
X100001078Y-115508188D01*
X100000000Y-115491742D01*
X100000000Y-109372000D01*
X100020002Y-109303879D01*
X100073658Y-109257386D01*
X100126000Y-109246000D01*
X103374000Y-109246000D01*
X103442121Y-109266002D01*
G37*
M02*
