M48
; DRILL file {KiCad (6.0.9-0)} date 2022 November 10, Thursday 09:06:52
; FORMAT={-:-/ absolute / metric / decimal}
; #@! TF.CreationDate,2022-11-10T09:06:52+01:00
; #@! TF.GenerationSoftware,Kicad,Pcbnew,(6.0.9-0)
; #@! TF.FileFunction,Plated,1,2,PTH
FMAT,2
METRIC
; #@! TA.AperFunction,Plated,PTH,ViaDrill
T1C0.400
; #@! TA.AperFunction,Plated,PTH,ComponentDrill
T2C1.000
; #@! TA.AperFunction,Plated,PTH,ComponentDrill
T3C1.020
; #@! TA.AperFunction,Plated,PTH,ComponentDrill
T4C2.500
%
G90
G05
T1
X101.384Y-89.553
X101.425Y-92.053
X101.466Y-94.553
X101.507Y-97.053
X101.548Y-99.553
X101.588Y-102.053
X101.596Y-104.553
X101.596Y-107.053
X102.289Y-73.96
X102.323Y-75.96
X102.357Y-77.96
X102.391Y-79.96
X102.425Y-81.96
X102.425Y-85.96
X105.41Y-63.5
X105.41Y-107.95
X105.43Y-102.87
X105.466Y-97.79
X110.49Y-63.5
X110.49Y-107.937
X110.51Y-102.857
X110.546Y-98.78
X115.57Y-63.459
X115.57Y-107.918
X115.59Y-102.838
X115.626Y-98.76
X120.25Y-108.2
X120.25Y-111.35
X120.65Y-63.418
X120.67Y-102.818
X120.706Y-97.738
X125.25Y-108.15
X125.25Y-111.35
X125.73Y-63.377
X125.73Y-102.814
X125.766Y-97.734
X127.75Y-108.25
X127.75Y-111.35
X129.15Y-100.65
X129.2Y-82.35
X129.2Y-91.007
X130.81Y-63.337
X130.95Y-104.85
X132.6Y-82.2
X132.6Y-88.3
X132.75Y-90.35
X133.975Y-110.51
X135.89Y-63.296
X136.575Y-111.31
X137.275Y-79.01
X137.375Y-83.31
X138.825Y-107.01
X139.775Y-81.41
X139.875Y-87.91
X139.975Y-104.01
X140.241Y-110.259
X140.241Y-111.259
X140.728Y-98.251
X140.875Y-91.15
X140.905Y-73.66
X140.946Y-68.58
X140.97Y-63.255
X142.075Y-84.71
X142.675Y-81.51
X142.75Y-110.7
X144.475Y-91.15
X144.775Y-80.11
X145.25Y-110.51
X146.075Y-101.81
X147.475Y-103.71
X147.575Y-98.21
X148.475Y-89.21
X148.475Y-106.51
X149.575Y-78.61
X149.748Y-72.51
X149.775Y-98.11
X149.775Y-110.01
X149.776Y-74.51
X149.805Y-76.51
X150.075Y-106.11
X151.275Y-111.11
X151.675Y-75.81
X152.075Y-71.51
X152.075Y-78.61
X152.075Y-88.91
X154.2Y-111.2
X154.775Y-78.61
X155.575Y-68.81
X157.05Y-110.75
X157.275Y-78.71
X157.325Y-104.51
X157.75Y-109.7
X158.625Y-100.66
X159.875Y-78.61
X159.975Y-88.61
X160.241Y-110.259
X160.241Y-111.252
X160.775Y-68.41
X161.175Y-97.66
X161.775Y-110.81
X162.775Y-80.11
X162.975Y-88.21
X162.975Y-91.15
X163.679Y-68.41
X164.075Y-108.21
X164.825Y-78.01
X164.825Y-95.21
X165.275Y-99.36
X166.179Y-68.41
X166.3Y-106.05
X166.425Y-96.61
X167.64Y-80.424
X167.75Y-108.8
X167.75Y-110.05
X167.775Y-91.007
X168.075Y-100.11
X168.755Y-68.433
X169.125Y-88.015
X169.531Y-106.481
X170.18Y-80.4
X171.295Y-68.433
X172.975Y-80.71
X173.835Y-68.421
X173.925Y-97.46
X173.975Y-88.01
X174.225Y-102.21
X176.175Y-75.01
X176.375Y-68.41
X176.375Y-92.41
X177.38Y-80.365
X177.75Y-108.75
X177.75Y-111.35
X178.875Y-88.81
X179.075Y-78.41
X179.275Y-98.91
X180.047Y-92.46
X180.25Y-108.8
X180.25Y-111.35
X181.165Y-89.209
X181.375Y-96.41
X181.4Y-77.855
X181.61Y-68.539
X182.88Y-87.588
X183.075Y-80.308
X183.825Y-76.01
X185.575Y-94.51
X186.075Y-108.563
X186.575Y-74.26
X186.675Y-104.26
X187.959Y-80.395
X187.96Y-97.759
X189.075Y-102.91
X189.175Y-108.563
X190.08Y-80.393
X190.5Y-87.63
X191.325Y-69.76
X191.575Y-104.91
X192.175Y-108.563
X192.62Y-80.365
X194.175Y-106.21
X195.075Y-67.26
X195.16Y-80.337
X195.875Y-97.91
X195.875Y-102.87
X197.831Y-84.56
X197.872Y-87.06
X197.885Y-89.18
X197.954Y-92.06
X197.995Y-94.56
X198.036Y-97.06
X198.076Y-99.56
X198.117Y-102.06
X198.125Y-104.56
X198.125Y-107.06
T2
X105.625Y-72.14
X105.625Y-74.68
X105.625Y-77.22
X105.625Y-79.76
X105.625Y-82.3
X105.625Y-84.84
X105.625Y-87.38
X105.625Y-89.92
X108.165Y-67.06
X108.165Y-72.14
X108.165Y-74.68
X108.165Y-77.22
X108.165Y-79.76
X108.165Y-82.3
X108.165Y-84.84
X108.165Y-87.38
X108.165Y-89.92
X110.705Y-67.06
X110.705Y-72.14
X110.705Y-74.68
X110.705Y-77.22
X110.705Y-79.76
X110.705Y-82.3
X110.705Y-84.84
X110.705Y-87.38
X110.705Y-89.92
X110.705Y-95.0
X113.245Y-67.06
X113.245Y-72.14
X113.245Y-74.68
X113.245Y-77.22
X113.245Y-79.76
X113.245Y-82.3
X113.245Y-84.84
X113.245Y-87.38
X113.245Y-89.92
X113.245Y-95.0
X115.785Y-67.06
X115.785Y-72.14
X115.785Y-74.68
X115.785Y-77.22
X115.785Y-79.76
X115.785Y-82.3
X115.785Y-84.84
X115.785Y-87.38
X115.785Y-89.92
X115.785Y-95.0
X118.325Y-67.06
X118.325Y-72.14
X118.325Y-74.68
X118.325Y-77.22
X118.325Y-79.76
X118.325Y-82.3
X118.325Y-84.84
X118.325Y-87.38
X118.325Y-89.92
X118.325Y-95.0
X120.865Y-67.06
X120.865Y-72.14
X120.865Y-74.68
X120.865Y-77.22
X120.865Y-79.76
X120.865Y-82.3
X120.865Y-84.84
X120.865Y-87.38
X120.865Y-89.92
X123.405Y-67.06
X123.405Y-72.14
X123.405Y-74.68
X123.405Y-77.22
X123.405Y-79.76
X123.405Y-82.3
X123.405Y-84.84
X123.405Y-87.38
X123.405Y-89.92
X125.945Y-72.14
X125.945Y-74.68
X125.945Y-77.22
X125.945Y-79.76
X125.945Y-82.3
X125.945Y-84.84
X125.945Y-87.38
X125.945Y-89.92
X186.3Y-71.55
X197.94Y-65.2
T3
X147.159Y-65.185
X147.159Y-82.965
X147.389Y-71.535
X147.389Y-74.075
X147.389Y-76.615
X149.699Y-65.185
X149.699Y-82.965
X152.239Y-65.185
X152.239Y-82.965
X154.779Y-65.185
X154.779Y-82.965
X157.319Y-65.185
X157.319Y-82.965
X159.859Y-65.185
X159.859Y-82.965
X162.399Y-65.185
X162.399Y-82.965
X164.939Y-65.185
X164.939Y-82.965
X167.479Y-65.185
X167.479Y-82.965
X170.019Y-65.185
X170.019Y-82.965
X172.559Y-65.185
X172.559Y-82.965
X175.099Y-65.185
X175.099Y-82.965
X177.639Y-65.185
X177.639Y-82.965
X180.179Y-65.185
X180.179Y-82.965
X182.719Y-65.185
X182.719Y-82.965
X185.259Y-65.185
X185.259Y-82.965
X187.799Y-65.185
X187.799Y-82.965
X190.339Y-65.185
X190.339Y-82.965
X192.879Y-65.185
X192.879Y-82.965
X195.419Y-65.185
X195.419Y-82.965
T4
X102.85Y-112.6
X197.65Y-112.6
T0
M30
